<?xml version="1.0" encoding="UTF-8"?>
<svg id="Layer_1" data-name="Layer 1" xmlns="http://www.w3.org/2000/svg" viewBox="0 0 2368.1 1226.99">
  <defs>
    <style>
      .cls-1 {
        fill: none;
        stroke: #231f20;
        stroke-miterlimit: 10;
        stroke-width: .75px;
      }

      .cls-2 {
        fill: #fad305;
      }

      .cls-3 {
        fill: #231f20;
      }
    </style>
  </defs>
  <path class="cls-3" d="M-35.24,216.94c10.22,3.39,20.42,6.85,30.59,10.38,9.51,3.3,19,6.67,28.45,10.12,8.83,3.22,17.64,6.51,26.42,9.89,8.28,3.19,16.54,6.45,24.75,9.79,7.78,3.17,15.53,6.42,23.25,9.76,7.27,3.15,14.51,6.37,21.7,9.69s13.76,6.44,20.58,9.78,13.08,6.52,19.56,9.91,12.48,6.63,18.66,10.06,12.09,6.83,18.08,10.35,11.78,7.05,17.61,10.67,11.55,7.28,17.27,11.02,11.53,7.62,17.24,11.5,11.58,7.97,17.33,12.02,11.72,8.33,17.54,12.55,12.06,8.79,18.07,13.23,12.49,9.27,18.71,13.94c6.55,4.91,13.13,9.78,19.61,14.77,7.94,6.11,15.3,12.99,22.06,20.39s13.31,15.81,18.85,24.52c4.93,7.75,9.62,15.9,11.7,24.93,1.89,8.2,1.84,16.77.34,25.03s-4.57,16.77-8.59,24.44-9.15,14.95-15.06,21.4c-6.49,7.07-14.09,13.07-21.87,18.65-8.44,6.05-17.29,11.51-26.34,16.59s-18.29,9.77-27.58,14.36-18.27,8.88-27.36,13.4c-8.17,4.06-16.3,8.22-24.28,12.67-7.45,4.15-14.77,8.55-21.81,13.36s-13.4,9.71-19.56,15.23-12.15,11.75-17.48,18.3c-5.94,7.29-11.2,15.12-16,23.2-3.44,5.78-6.93,11.92-8.45,18.53-.97,4.22-.75,8.43.53,12.55.75,2.43,1.67,4.92,2.9,7.14,1.64,2.95,4.04,5.44,7.09,6.93s6.6,1.95,10.02,1.78c1.99-.1,3.97-.4,5.91-.82,1.1-.24,2.2-.52,3.29-.84.96-.28,1.95-.53,2.85-.99,5.3-2.69,9.24-7.5,10.89-13.2,1.51-5.19,1.17-10.96-1.16-15.86s-6.7-8.5-12.04-9.57c-2.8-.56-5.71-.41-8.53-.07-2.47.3-4.91.86-7.28,1.61-5.25,1.68-10.17,4.32-14.71,7.43-5.21,3.58-9.97,7.8-14.35,12.36-4.96,5.17-9.45,10.79-13.55,16.66-4.52,6.47-8.57,13.27-12.2,20.27-3.86,7.44-7.25,15.11-10.2,22.95-3.1,8.24-5.71,16.67-7.8,25.22s-3.74,17.59-4.76,26.52-1.46,18.1-1.22,27.17,1.23,18.03,2.83,26.93c1.47,8.13,3.14,16.22,5.06,24.26s4.03,15.83,6.43,23.64,5.05,15.48,8.01,23.07,6.16,14.97,9.7,22.25,7.4,14.43,11.57,21.38,8.79,13.88,13.68,20.48,10.25,13.16,15.85,19.34,11.85,12.41,18.22,18.15,13.57,11.59,20.77,16.86c7.59,5.56,15.47,10.73,23.57,15.52,7.93,4.69,16.12,8.91,24.5,12.73s17.31,7.38,26.18,10.51c9.01,3.17,18.14,5.98,27.36,8.48,9.15,2.47,18.38,4.64,27.67,6.52s18.29,3.42,27.5,4.73,17.62,2.28,26.47,3.05c8.27.73,16.56,1.24,24.86,1.52,9.95.33,19.91.36,29.86.39,10.63.03,21.27-.05,31.9-.3,10.15-.24,20.3-.63,30.44-1.25,9.72-.59,19.43-1.38,29.1-2.46s18.36-2.29,27.46-3.9,17.3-3.37,25.82-5.61c8.17-2.14,16.25-4.65,24.16-7.6s15.14-6.15,22.42-9.89c9.19-4.72,18.26-9.68,27.22-14.82,8.95-5.14,17.8-10.47,26.56-15.93,8.66-5.4,17.23-10.94,25.74-16.57s16.57-11.09,24.79-16.73,15.98-11.03,23.95-16.58c7.65-5.33,15.3-10.66,22.97-15.96,7.25-5,14.53-9.98,21.86-14.86,6.88-4.58,13.82-9.09,20.85-13.45,6.47-4.01,13.02-7.9,19.7-11.56,5.81-3.18,11.71-6.17,17.74-8.91,2.84-1.29,5.67-2.59,8.51-3.9,2.49-1.15,4.98-2.3,7.47-3.46,2.22-1.04,4.45-2.08,6.67-3.12,2.05-.96,4.11-1.93,6.16-2.9s3.92-1.84,5.89-2.76,3.89-1.81,5.84-2.71,4.06-1.86,6.1-2.78c2.19-.99,4.38-1.97,6.58-2.93,2.43-1.07,4.86-2.13,7.29-3.18,2.75-1.19,5.51-2.36,8.27-3.53,3.18-1.34,6.37-2.67,9.56-4,3.67-1.52,7.34-3.03,11.01-4.53,4.25-1.73,8.5-3.46,12.75-5.17,4.93-1.99,9.86-3.96,14.8-5.93,5.68-2.27,11.37-4.52,17.05-6.78,6.49-2.57,12.99-5.13,19.49-7.69,7.44-2.92,14.87-5.84,22.31-8.75,8.44-3.3,16.88-6.6,25.33-9.89,9.5-3.7,18.99-7.39,28.49-11.08,10.48-4.07,20.94-8.22,31.49-12.13s20.91-7.48,31.49-10.88,20.93-6.49,31.48-9.43c10.52-2.93,21.1-5.67,31.72-8.24,10.59-2.56,21.21-4.95,31.87-7.2s21.26-4.34,31.92-6.33c10.72-2,21.47-3.89,32.23-5.69s21.61-3.54,32.44-5.22,21.7-3.31,32.55-4.92,22.35-3.34,33.55-4.84c11.24-1.5,22.51-2.85,33.8-4.02,11.07-1.15,22.16-2.15,33.26-2.99,10.99-.83,21.99-1.5,32.99-2.02s21.76-.88,32.65-1.09c10.74-.21,21.49-.28,32.23-.21,10.7.07,21.39.28,32.08.62,10.62.34,21.24.82,31.86,1.41s21.04,1.31,31.55,2.15,21.02,1.79,31.52,2.85,20.95,2.23,31.41,3.5c10.46,1.27,20.91,2.64,31.35,4.1,10.45,1.46,20.88,3.02,31.3,4.66,10.45,1.64,20.88,3.37,31.31,5.17s20.84,3.67,31.24,5.61c10.49,1.95,20.97,3.97,31.43,6.04s21.05,4.22,31.55,6.41c10.54,2.19,21.08,4.43,31.6,6.7,10.64,2.3,21.28,4.63,31.91,7s21.44,4.79,32.15,7.22c10.77,2.44,21.54,4.9,32.31,7.37s21.83,5.02,32.74,7.53c11.03,2.54,22.06,5.08,33.09,7.62,11.12,2.55,22.24,5.1,33.37,7.63,9.67,2.2,19.36,4.35,28.95,6.87,9.19,2.42,18.31,5.17,27.18,8.58,8.79,3.38,17.34,7.43,25.34,12.42,4.02,2.51,7.9,5.25,11.57,8.25,3.89,3.17,7.51,6.64,11,10.24,6.17,6.36,11.96,13.21,16.44,20.89,3.4,5.82,6,12.14,7.04,18.83.94,5.98.52,12.09-.98,17.94-1.62,6.34-4.41,12.32-7.67,17.97-3.82,6.62-8.28,12.85-12.92,18.91-5.49,7.18-11.26,14.14-17.02,21.1-6.6,7.98-13.21,15.95-19.64,24.07-3.05,3.85-5.95,7.83-8.62,11.97-2.45,3.8-4.71,7.72-6.7,11.77-1.83,3.72-3.43,7.55-4.71,11.49-1.17,3.59-2.07,7.27-2.59,11.01-.48,3.46-.65,6.97-.39,10.45s.89,6.64,1.96,9.81,2.55,6.12,4.4,8.87c1.96,2.91,4.32,5.54,6.95,7.86,2.96,2.61,6.24,4.84,9.7,6.74,3.96,2.18,8.14,3.94,12.42,5.38,5,1.69,10.14,2.96,15.32,3.94,6.08,1.14,12.23,1.89,18.39,2.36,7.18.55,14.39.71,21.58.62,8.27-.11,16.54-.57,24.78-1.27,9.42-.8,18.81-1.93,28.16-3.3s17.74-2.8,26.57-4.48c.47-.09.27-.81-.2-.72-10.33,1.96-20.7,3.69-31.12,5.12-9.21,1.26-18.45,2.28-27.72,2.97-8.06.6-16.15.95-24.24.95-7,0-14.01-.26-20.99-.91-6-.55-11.97-1.39-17.87-2.63-5.02-1.06-10-2.42-14.81-4.2-4.12-1.52-8.13-3.37-11.9-5.63-3.27-1.96-6.35-4.25-9.09-6.9-2.47-2.39-4.65-5.08-6.41-8.03s-2.98-5.85-3.85-9.02-1.34-6.53-1.41-9.85c-.08-3.54.26-7.08.91-10.55.71-3.79,1.78-7.51,3.11-11.13,1.45-3.96,3.22-7.8,5.19-11.52,2.16-4.08,4.58-8.01,7.19-11.82,3.7-5.41,7.82-10.5,11.93-15.59,6.27-7.75,12.66-15.39,18.99-23.09,5.46-6.64,10.88-13.33,15.96-20.27,4.32-5.91,8.42-12.03,11.75-18.57,2.85-5.59,5.13-11.53,6.18-17.73s.81-12.02-.6-17.88c-1.64-6.82-4.81-13.19-8.65-19.03-5.09-7.73-11.36-14.65-17.98-21.1-6.8-6.61-14.39-12.3-22.6-17.06s-16.7-8.49-25.5-11.69c-8.91-3.24-18.04-5.86-27.22-8.19-9.82-2.49-19.72-4.66-29.6-6.91-11.11-2.53-22.21-5.07-33.32-7.63s-21.95-5.05-32.93-7.58c-10.86-2.5-21.72-5-32.58-7.49s-21.51-4.92-32.28-7.36-21.33-4.81-32.01-7.17-21.18-4.66-31.78-6.94c-10.52-2.26-21.05-4.49-31.58-6.67-10.47-2.16-20.94-4.28-31.43-6.35-10.43-2.05-20.86-4.05-31.31-5.98-10.4-1.92-20.81-3.78-31.23-5.56s-20.78-3.48-31.19-5.1c-10.38-1.62-20.78-3.15-31.19-4.59-10.36-1.43-20.72-2.78-31.1-4.02s-20.86-2.4-31.3-3.44-20.93-1.97-31.42-2.79-21.04-1.52-31.57-2.09c-10.62-.58-21.24-1.04-31.87-1.36s-21.32-.51-31.99-.56c-10.75-.05-21.5.04-32.25.27-10.86.24-21.71.62-32.56,1.15s-21.94,1.23-32.9,2.08-22.2,1.88-33.28,3.05c-11.21,1.19-22.39,2.54-33.56,4.05s-22.16,3.17-33.23,4.82-21.7,3.24-32.54,4.93c-10.78,1.68-21.55,3.4-32.31,5.21s-21.42,3.69-32.1,5.69-21.3,4.1-31.92,6.35c-10.62,2.25-21.2,4.64-31.75,7.2-10.58,2.57-21.12,5.31-31.6,8.24-10.55,2.95-21.05,6.1-31.48,9.47-10.53,3.4-21,7.02-31.37,10.88s-20.91,8.03-31.35,12.09c-9.48,3.68-18.95,7.36-28.42,11.06-8.4,3.27-16.79,6.55-25.18,9.83-7.4,2.9-14.8,5.8-22.19,8.7-6.49,2.55-12.97,5.11-19.45,7.67-5.66,2.24-11.31,4.49-16.96,6.74-4.91,1.96-9.82,3.93-14.72,5.9-4.25,1.71-8.5,3.43-12.74,5.17-3.67,1.5-7.34,3.01-11,4.52-3.18,1.32-6.37,2.65-9.54,3.99-2.77,1.17-5.53,2.34-8.29,3.53-2.44,1.05-4.87,2.11-7.3,3.18-2.19.97-4.38,1.94-6.57,2.93-2.03.92-4.06,1.84-6.08,2.77s-3.9,1.8-5.85,2.71-3.91,1.83-5.86,2.75-4.09,1.92-6.13,2.88c-2.21,1.04-4.43,2.08-6.65,3.11-2.47,1.15-4.94,2.3-7.42,3.44-2.81,1.3-5.62,2.58-8.44,3.87-5.9,2.69-11.69,5.58-17.39,8.69-6.64,3.62-13.15,7.46-19.58,11.44-6.99,4.32-13.88,8.78-20.73,13.33-7.32,4.86-14.58,9.82-21.81,14.8-7.63,5.26-15.24,10.57-22.85,15.86s-15.86,11.03-23.82,16.5-16.45,11.23-24.74,16.73-17,11.14-25.61,16.53-17.51,10.78-26.42,15.92-18,10.15-27.17,14.9c-7.39,3.82-14.95,7.27-22.74,10.22-7.85,2.98-15.87,5.51-23.99,7.68-8.49,2.27-17.09,4.14-25.73,5.7-9.11,1.65-18.28,2.95-27.48,3.99s-19.28,1.9-28.94,2.5-20.25,1.04-30.38,1.29c-10.57.26-21.15.36-31.73.34-10.06-.02-20.12-.05-30.18-.36-8.26-.25-16.52-.75-24.76-1.45-8.86-.76-17.69-1.75-26.5-2.99s-18.3-2.83-27.38-4.65c-9.29-1.86-18.52-3.99-27.67-6.44-9.19-2.46-18.31-5.23-27.29-8.36-8.92-3.11-17.72-6.57-26.34-10.45-8.38-3.78-16.59-7.96-24.52-12.62s-15.99-9.89-23.59-15.41c-7.25-5.27-14.25-10.9-20.93-16.88s-12.51-11.77-18.29-18.11-10.96-12.65-15.95-19.37-9.44-13.38-13.67-20.39-8.06-14.07-11.62-21.36-6.83-14.79-9.79-22.37-5.6-15.23-7.99-22.98-4.54-15.69-6.44-23.63-3.59-16.07-5.06-24.17c-1.62-8.92-2.62-17.91-2.87-26.98s.18-18.16,1.2-27.18,2.64-17.85,4.79-26.6,4.7-16.91,7.79-25.12,6.4-15.6,10.29-23.07c3.63-6.96,7.67-13.72,12.18-20.15,4.11-5.86,8.61-11.46,13.6-16.61,4.39-4.54,9.17-8.74,14.42-12.27,4.53-3.05,9.44-5.61,14.69-7.19,2.37-.71,4.81-1.23,7.27-1.46,2.9-.28,5.83-.35,8.67.44,5.26,1.47,9.23,5.58,11.06,10.67s1.63,11.07-.55,16.1c-1.15,2.65-2.84,5.05-4.98,7-1.14,1.04-2.4,1.95-3.74,2.71-1.81,1.02-3.86,1.53-5.87,2.01-6.91,1.66-15.05,1.86-20.4-3.57-2.29-2.32-3.61-5.25-4.75-8.26-.72-1.93-1.35-3.9-1.7-5.93-.8-4.63.18-9.23,1.85-13.56,1.27-3.32,2.9-6.5,4.63-9.6,2.4-4.33,5.04-8.52,7.74-12.66,4.83-7.4,10.21-14.44,16.16-20.98,5.6-6.15,11.68-11.84,18.14-17.07s13.34-10.05,20.4-14.49,14.95-8.9,22.64-12.97c8.27-4.38,16.66-8.54,25.07-12.64,9.33-4.56,18.68-9.05,27.94-13.75s18.36-9.58,27.23-14.94,17.39-11.12,25.47-17.54c3.64-2.89,7.19-5.89,10.48-9.17,3.08-3.07,5.96-6.34,8.62-9.78,5.31-6.85,9.78-14.37,13.14-22.36s5.51-16.13,6.15-24.61-.32-16.64-3.16-24.43c-1.56-4.3-3.74-8.34-6-12.3-2.51-4.41-5.25-8.69-8.16-12.84-5.86-8.35-12.43-16.2-19.6-23.45-3.51-3.55-7.16-6.96-10.96-10.21-3.48-2.97-7.11-5.73-10.76-8.49-6.42-4.84-12.84-9.67-19.28-14.48s-12.31-9.18-18.49-13.73-11.9-8.73-17.89-13.05-11.62-8.32-17.47-12.42-11.46-7.96-17.23-11.86-11.42-7.64-17.18-11.37-11.5-7.36-17.31-10.94-11.71-7.12-17.63-10.57-12.04-6.92-18.12-10.26-12.49-6.76-18.8-10.02-13.07-6.65-19.67-9.85-13.77-6.57-20.71-9.73-14.59-6.54-21.94-9.68c-7.72-3.31-15.48-6.52-23.28-9.67-8.28-3.34-16.6-6.59-24.94-9.78-8.88-3.38-17.79-6.69-26.72-9.92-9.54-3.45-19.1-6.82-28.68-10.12-8.6-2.96-17.21-5.87-25.84-8.74-.46-.15-.66.57-.2.72h0Z"/>
  <g>
    <circle class="cls-2" cx="69.24" cy="254.32" r="7.58"/>
    <path class="cls-1" d="M65.48,252.89c2.52-1.07,5.65-2.56,7.72-.75,1.13.99,1.38,2.84.54,4.1s-2.64,1.73-3.99,1.07c-1.8-.89-2.33-3.31-1.82-5.26s1.75-3.59,2.72-5.35c1.96-3.57,2.75-7.76,2.23-11.8-.3-2.31-1.32-4.89-3.56-5.54-2.03-.59-4.23.8-5.16,2.7s-.82,4.13-.43,6.2c2.21,11.54,12.64,20.77,12.78,32.52.02,1.67-.19,3.39-.99,4.87s-2.25,2.67-3.92,2.8c-2.1.17-4.05-1.36-4.96-3.25s-.98-4.08-.89-6.18c.22-4.95,1.51-10.3,5.41-13.36,3.1-2.43,7.24-2.95,10.94-4.29s7.49-4.33,7.29-8.27c-.2-4.09-5-6.8-9.01-5.96s-7.03,4.22-8.88,7.87c-2.14,4.24-4.28,8.47-6.42,12.71-1.91,3.78-3.89,7.66-7.02,10.52-1.51,1.38-3.34,2.53-5.38,2.75s-4.28-.68-5.2-2.51c-.82-1.64-.44-3.69.55-5.22s2.52-2.66,4.07-3.63c9.73-6.09,22.12-7.77,33.12-4.48,2.79.84,5.94,2.57,6.06,5.48.1,2.38-2.17,4.41-4.54,4.64s-4.7-.97-6.45-2.58c-1.75-1.62-3.68-3.3-4.53-5.53-.61-1.59-2.57-1.77-17.36-13.23-2.13-1.65-5.24-1.81-7.85-1.17s-4.91,3.2-4.41,5.84c.49,2.59,3.24,4.06,5.79,4.72,8.46,2.17,18.06-1.1,23.45-7.98,2.18-2.79,4.18-6.4,7.69-6.86,1.92-.25,3.95.67,5.03,2.28s1.16,3.83.19,5.52"/>
  </g>
  <g>
    <circle class="cls-2" cx="2242.28" cy="1050.21" r="7.58"/>
    <path class="cls-1" d="M2238.53,1048.78c2.52-1.07,5.65-2.56,7.72-.75,1.13.99,1.38,2.84.54,4.1s-2.64,1.73-3.99,1.07c-1.8-.89-2.33-3.31-1.82-5.26s1.75-3.59,2.72-5.35c1.96-3.57,2.75-7.76,2.23-11.8-.3-2.31-1.32-4.89-3.56-5.54-2.03-.59-4.23.8-5.16,2.7s-.82,4.13-.43,6.2c2.21,11.54,12.64,20.77,12.78,32.52.02,1.67-.19,3.39-.99,4.87s-2.25,2.67-3.92,2.8c-2.1.17-4.05-1.36-4.96-3.25-.91-1.89-.98-4.08-.89-6.18.22-4.95,1.51-10.3,5.41-13.36,3.1-2.43,7.24-2.95,10.94-4.29,3.7-1.35,7.49-4.33,7.29-8.27s-5-6.8-9.01-5.96-7.03,4.22-8.88,7.87l-6.42,12.71c-1.91,3.78-3.89,7.66-7.02,10.52-1.51,1.38-3.34,2.53-5.38,2.75-2.04.22-4.28-.68-5.2-2.51-.82-1.64-.44-3.69.55-5.22,1-1.54,2.52-2.66,4.07-3.63,9.73-6.09,22.12-7.77,33.12-4.48,2.79.84,5.94,2.57,6.06,5.48.1,2.38-2.17,4.41-4.54,4.64-2.38.23-4.7-.97-6.45-2.58s-3.68-3.3-4.53-5.53c-.61-1.59-2.57-1.77-17.36-13.23-2.13-1.65-5.24-1.81-7.85-1.17-2.61.65-4.91,3.2-4.41,5.84.49,2.59,3.24,4.06,5.79,4.72,8.46,2.17,18.06-1.1,23.45-7.98,2.18-2.79,4.18-6.4,7.69-6.86,1.92-.25,3.95.67,5.03,2.28s1.16,3.83.19,5.52"/>
  </g>
  <g>
    <circle class="cls-2" cx="565.85" cy="1137.98" r="7.58"/>
    <path class="cls-1" d="M562.09,1136.56c2.52-1.07,5.65-2.56,7.72-.75,1.13.99,1.38,2.84.54,4.1s-2.64,1.73-3.99,1.07c-1.8-.89-2.33-3.31-1.82-5.26s1.75-3.59,2.72-5.35c1.96-3.57,2.75-7.76,2.23-11.8-.3-2.31-1.32-4.89-3.56-5.54-2.03-.59-4.23.8-5.16,2.7s-.82,4.13-.43,6.2c2.21,11.54,12.64,20.77,12.78,32.52.02,1.67-.19,3.39-.99,4.87s-2.25,2.67-3.92,2.8c-2.1.17-4.05-1.36-4.96-3.25s-.98-4.08-.89-6.18c.22-4.95,1.51-10.3,5.41-13.36,3.1-2.43,7.24-2.95,10.94-4.29,3.7-1.35,7.49-4.33,7.29-8.27s-5-6.8-9.01-5.96-7.03,4.22-8.88,7.87c-2.14,4.24-4.28,8.47-6.42,12.71-1.91,3.78-3.89,7.66-7.02,10.52-1.51,1.38-3.34,2.53-5.38,2.75-2.04.22-4.28-.68-5.2-2.51-.82-1.64-.44-3.69.55-5.22s2.52-2.66,4.07-3.63c9.73-6.09,22.12-7.77,33.12-4.48,2.79.84,5.94,2.57,6.06,5.48.1,2.38-2.17,4.41-4.54,4.64s-4.7-.97-6.45-2.58c-1.75-1.62-3.68-3.3-4.53-5.53-.61-1.59-2.57-1.77-17.36-13.23-2.13-1.65-5.24-1.81-7.85-1.17-2.61.65-4.91,3.2-4.41,5.84.49,2.59,3.24,4.06,5.79,4.72,8.46,2.17,18.06-1.1,23.45-7.98,2.18-2.79,4.18-6.4,7.69-6.86,1.92-.25,3.95.67,5.03,2.28s1.16,3.83.19,5.52"/>
  </g>
</svg>