<?xml version="1.0" encoding="UTF-8"?>
<svg id="Layer_1" data-name="Layer 1" xmlns="http://www.w3.org/2000/svg" viewBox="0 0 150 79.52">
  <defs>
    <style>
      .cls-1 {
        fill: #231f20;
        font-family: BalooPaaji2-Regular, 'Baloo Paaji 2';
        font-size: 25.78px;
        font-variation-settings: 'wght' 400;
      }

      .cls-2 {
        letter-spacing: -.01em;
      }

      .cls-3 {
        fill: #fff;
        stroke-width: .93px;
      }

      .cls-3, .cls-4 {
        stroke: #221f1f;
        stroke-miterlimit: 10;
      }

      .cls-5 {
        fill: #f9c512;
      }

      .cls-4 {
        fill: #221f1f;
        stroke-width: .12px;
      }

      .cls-6 {
        letter-spacing: 0em;
      }
    </style>
  </defs>
  <text class="cls-1" transform="translate(3 71.18)"><tspan x="0" y="0">dai</tspan><tspan class="cls-2" x="33.18" y="0">s</tspan><tspan class="cls-6" x="44.32" y="0">y</tspan><tspan x="56.72" y="0">chained</tspan></text>
  <g>
    <rect class="cls-4" x="53.96" y="4.86" width="42.42" height="42.42" rx="7.31" ry="7.31"/>
    <g>
      <path class="cls-3" d="M64.44,36.8c-.81-.81-.81-2.14,0-2.95.81-.81,2.14-.81,2.95,0,.81.81.81,2.14,0,2.95s-2.14.81-2.95,0M62.38,38.86c1.95,1.95,5.12,1.95,7.07,0,1.95-1.95,1.95-5.12,0-7.07-1.95-1.95-5.12-1.95-7.07,0-1.95,1.95-1.95,5.12,0,7.07h0Z"/>
      <path class="cls-3" d="M86.17,26.07c0-1.15.94-2.09,2.09-2.09s2.09.94,2.09,2.09-.94,2.09-2.09,2.09-2.09-.94-2.09-2.09M83.26,26.07c0,2.76,2.24,5,5,5s5-2.24,5-5c0-2.76-2.24-5-5-5-2.76,0-5,2.24-5,5h0Z"/>
      <path class="cls-3" d="M60,26.07c0-1.15.94-2.09,2.09-2.09,1.15,0,2.09.94,2.09,2.09,0,1.15-.94,2.09-2.09,2.09s-2.09-.94-2.09-2.09M57.09,26.07c0,2.76,2.24,5,5,5,2.76,0,5-2.24,5-5,0-2.76-2.24-5-5-5s-5,2.24-5,5h0Z"/>
      <path class="cls-3" d="M75.17,15.07c-1.15,0-2.09-.94-2.09-2.09,0-1.15.94-2.09,2.09-2.09,1.15,0,2.09.94,2.09,2.09,0,1.15-.94,2.09-2.09,2.09M75.17,17.98c2.76,0,5-2.24,5-5,0-2.76-2.24-5-5-5-2.76,0-5,2.24-5,5,0,2.76,2.24,5,5,5h0Z"/>
      <path class="cls-3" d="M75.17,41.24c-1.15,0-2.09-.94-2.09-2.09s.94-2.09,2.09-2.09c1.15,0,2.09.94,2.09,2.09,0,1.15-.94,2.09-2.09,2.09M75.17,44.15c2.76,0,5-2.24,5-5s-2.24-5-5-5c-2.76,0-5,2.24-5,5,0,2.76,2.24,5,5,5h0Z"/>
      <path class="cls-3" d="M82.95,18.29c-.81-.81-.81-2.14,0-2.95s2.14-.81,2.95,0,.81,2.14,0,2.95c-.81.81-2.14.81-2.95,0M80.89,20.35c1.95,1.95,5.12,1.95,7.07,0,1.95-1.95,1.95-5.12,0-7.07s-5.12-1.95-7.07,0c-1.95,1.95-1.95,5.12,0,7.07h0Z"/>
      <path class="cls-3" d="M67.4,18.29c-.81.81-2.14.81-2.95,0-.81-.81-.81-2.14,0-2.95.81-.81,2.14-.81,2.95,0,.81.81.81,2.14,0,2.95M69.45,20.35c1.95-1.95,1.95-5.12,0-7.07s-5.12-1.95-7.07,0c-1.95,1.95-1.95,5.12,0,7.07,1.95,1.95,5.12,1.95,7.07,0h0Z"/>
      <path class="cls-3" d="M85.9,36.8c-.81.81-2.14.81-2.95,0-.81-.81-.81-2.14,0-2.95.81-.81,2.14-.81,2.95,0,.81.81.81,2.14,0,2.95M87.96,38.86c1.95-1.95,1.95-5.12,0-7.07-1.95-1.95-5.12-1.95-7.07,0-1.95,1.95-1.95,5.12,0,7.07,1.95,1.95,5.12,1.95,7.07,0h0Z"/>
      <path class="cls-3" d="M74.01,14.81l-6.03,2.5c-.7.29-1.51-.04-1.8-.75s.04-1.51.75-1.8l6.03-2.5c.7-.29,1.51.04,1.8.75s-.04,1.51-.75,1.8Z"/>
      <path class="cls-3" d="M83.41,37.39l-6.03,2.5c-.7.29-1.51-.04-1.8-.75s.04-1.51.75-1.8l6.03-2.5c.7-.29,1.51.04,1.8.75s-.04,1.51-.75,1.8Z"/>
      <path class="cls-3" d="M66.38,18.92l-2.5,6.03c-.29.7-1.1,1.04-1.8.75s-1.04-1.1-.75-1.8l2.5-6.03c.29-.7,1.1-1.04,1.8-.75s1.04,1.1.75,1.8Z"/>
      <path class="cls-3" d="M88.99,28.24l-2.5,6.03c-.29.7-1.1,1.04-1.8.75s-1.04-1.1-.75-1.8l2.5-6.03c.29-.7,1.1-1.04,1.8-.75s1.04,1.1.75,1.8Z"/>
      <path class="cls-3" d="M63.9,27.23l2.5,6.03c.29.7-.04,1.51-.75,1.8-.7.29-1.51-.04-1.8-.75l-2.5-6.03c-.29-.7.04-1.51.75-1.8s1.51.04,1.8.75Z"/>
      <path class="cls-3" d="M68.01,34.85l6.03,2.5c.7.29,1.04,1.1.75,1.8s-1.1,1.04-1.8.75l-6.03-2.5c-.7-.29-1.04-1.1-.75-1.8s1.1-1.04,1.8-.75Z"/>
      <path class="cls-3" d="M77.34,12.24l6.03,2.5c.7.29,1.04,1.1.75,1.8s-1.1,1.04-1.8.75l-6.03-2.5c-.7-.29-1.04-1.1-.75-1.8.29-.7,1.1-1.04,1.8-.75Z"/>
      <path class="cls-3" d="M86.48,17.83l2.5,6.03c.29.7-.04,1.51-.75,1.8-.7.29-1.51-.04-1.8-.75l-2.5-6.03c-.29-.7.04-1.51.75-1.8.7-.29,1.51.04,1.8.75Z"/>
      <circle class="cls-5" cx="75.17" cy="26.07" r="5.5"/>
    </g>
  </g>
</svg>