<?xml version="1.0" encoding="UTF-8"?>
<svg id="Layer_1" data-name="Layer 1" xmlns="http://www.w3.org/2000/svg" viewBox="0 0 443.63 423.75">
  <defs>
    <style>
      .cls-1 {
        fill: #fff;
      }
    </style>
  </defs>
  <g id="_3" data-name="3">
    <path class="cls-1" d="M304.76,14.44l-1.46-1.02-.09.69c7.59-1.31,15.87-.16,22.19,4.45,2.84,2.07,5.22,4.8,6.84,7.93,1.72,3.32,2.36,6.91,2.18,10.63-.23,4.61-1.31,9.3-.02,13.85l.63-.36c-.31-.33-.62-.66-.93-.99-.33-.35-.86.18-.53.53.31.33.62.66.93.99.26.27.73,0,.63-.36-1.22-4.29-.26-8.73,0-13.07.24-3.8-.27-7.46-1.91-10.91-3.21-6.77-9.66-11.41-16.87-13.11-4.37-1.03-8.93-1.05-13.34-.29-.35.06-.33.52-.09.69l1.46,1.02c.4.28.77-.37.38-.65h0Z"/>
    <path class="cls-1" d="M326.48,11.65c.46-.25.22-.8-.2-.91-.49-.13-.85.31-.68.77s.74.61,1.17.78.84.36,1.24.58c1.64.89,3.08,2.16,4.14,3.7.29.42.59.87.79,1.34.14.34.29.82-.02,1.11-.35.33.18.86.53.53.65-.61.38-1.58.01-2.27-.4-.74-.88-1.44-1.42-2.08-1.09-1.29-2.45-2.37-3.95-3.14-.44-.22-.89-.42-1.34-.59-.09-.03-.17-.06-.26-.1-.03-.01-.14-.11-.17-.11,0,0-.01.02-.01.02l-.17.17c-.05,0-.06,0-.01,0-.06.02-.04-.01,0,0-.04-.02-.04-.02,0,0-.15-.09-.15-.25,0-.47-.42.23-.05.88.38.65h0Z"/>
    <path class="cls-1" d="M324.95,5.73l-.83-.87-.45.59c4.4,2.07,9.14,4.36,11.63,8.77.73,1.3,1.23,2.71,1.51,4.17.09.47.81.27.72-.2-.49-2.63-1.73-5.06-3.54-7.02-1.71-1.85-3.85-3.25-6.05-4.44-1.27-.69-2.58-1.31-3.88-1.92-.38-.18-.76.27-.45.59l.83.87c.33.35.86-.18.53-.53h0Z"/>
    <path class="cls-1" d="M326.16,1.41c5.88,2.2,10.87,6.61,13.79,12.16.68,1.29,1.33,3.16,3,3.4.47.07.68-.66.2-.72-1.48-.21-2.03-2.09-2.64-3.22-.73-1.35-1.58-2.64-2.53-3.84-1.92-2.44-4.28-4.54-6.91-6.18-1.49-.93-3.07-1.7-4.71-2.31-.45-.17-.65.56-.2.72h0Z"/>
    <path class="cls-1" d="M350.83,30.12c-.18-.8-.05-1.62.34-2.34h-.79c.89,1.96.25,4.2-.23,6.18s-1.01,4.26-.22,6.3c.15.37.79.49.88,0,.52-2.82,1.03-5.63,1.55-8.45.26-1.4.51-2.79.77-4.19.12-.63.18-1.3.38-1.91.09-.28.31-.86.69-.73l-.32-.32c.47,2.91.65,5.86.57,8.81-.02.71-.06,1.42-.11,2.12-.05.6-.15,1.21-.09,1.81.09.86.49,1.88,1.52,1.84.25,0,.45-.2.46-.46.09-2.2.31-4.39.67-6.57.18-1.08.4-2.16.65-3.22.11-.49.24-.97.36-1.45.12-.44.22-.89.44-1.28.13-.24.34-.56.65-.55s.45.31.53.56c.12.36.13.72.14,1.09.01.57.02,1.14.03,1.71.04,2.28.08,4.56.13,6.84.02.96-.03,1.92.42,2.79.37.72,1.06,1.15,1.84.79.53-.25.07-1.04-.46-.79s-.81-1.05-.84-1.36c-.11-1.11-.05-2.26-.07-3.37s-.04-2.33-.06-3.5,0-2.31-.07-3.45c-.04-.68-.19-1.48-.76-1.93-.65-.52-1.5-.29-2,.32-.56.69-.73,1.63-.95,2.47-.28,1.11-.53,2.23-.74,3.36-.46,2.49-.74,5.01-.84,7.55l.46-.46c-.79.03-.62-1.52-.57-1.98.12-1.31.18-2.63.19-3.95.02-2.68-.2-5.35-.62-7.99-.03-.16-.18-.27-.32-.32-1.17-.38-1.77,1.01-1.94,1.91-.29,1.55-.57,3.1-.85,4.64-.57,3.12-1.14,6.24-1.71,9.37h.88c-.81-2.08-.14-4.3.35-6.36s.94-4.29,0-6.34c-.14-.32-.64-.28-.79,0-.52.94-.67,2-.44,3.04.13.58,1.01.33.88-.24h0Z"/>
    <path class="cls-1" d="M366.85,35.84c.42-.66.5-1.45.55-2.21.01-.18.02-.36.03-.54,0-.08.01-.17.02-.25,0-.04,0-.08.01-.12,0-.02.02-.17.01-.1.02-.16.05-.32.09-.47.05-.2.09-.29.16-.43.15-.27.33-.46.63-.59-.08.03.07-.02.07-.02.03,0,.06-.02.09-.03.05-.01.09-.02.14-.03-.07.01,0,0,.02,0,.1,0,.19-.01.29,0,.12,0,.12,0,.22.03.7.14,1.22.58,1.52,1.26.34.75.34,1.62.25,2.42s-.32,1.63-.77,2.32c-.42.65-1.01,1.11-1.75,1.28-.66.15-1.37.03-1.85-.48-.54-.56-.7-1.42-.6-2.21.13-1,.71-2,1.23-2.9.3-.51-.5-.97-.79-.46-.54.94-1.11,1.92-1.3,3-.16.91-.07,1.9.43,2.71s1.36,1.3,2.32,1.32,1.85-.39,2.5-1.03c.71-.7,1.13-1.64,1.35-2.59s.29-2.02.07-3c-.21-.92-.74-1.79-1.59-2.24-.76-.4-1.73-.5-2.49-.03-.86.53-1.1,1.51-1.18,2.45-.04.46-.04.92-.1,1.37.01-.08-.01.08-.01.08,0,.05-.02.1-.03.15-.02.11-.05.22-.08.34-.06.22-.12.34-.25.55s-.04.51.16.63c.22.13.49.04.63-.16h0Z"/>
    <path class="cls-1" d="M375.53,27.14l.57-4.48h-.92c.32,3.83.31,7.68-.02,11.5-.03.4.53.61.78.32,1.01-1.11,1.03-2.62,1.7-3.89.29-.56.72-1,1.34-1.16.55-.14,1.14-.05,1.66.16,2.96,1.22,1.83,5.26-.33,6.7-.96.64-2.78,1.17-3.5-.08-.29-.51-1.08-.05-.79.46.8,1.41,2.59,1.41,3.92.85,1.59-.66,2.79-2.2,3.24-3.84s.06-3.39-1.33-4.43c-1.13-.85-2.84-1.14-4.05-.26-.77.56-1.15,1.44-1.42,2.32s-.46,1.84-1.09,2.53l.78.32c.33-3.83.34-7.68.02-11.5-.05-.6-.84-.58-.92,0l-.57,4.48c-.03.25.23.46.46.46.27,0,.43-.21.46-.46h0Z"/>
    <path class="cls-1" d="M385.53,29.14c.03-.05.03-.06,0-.02-.08.07-.16.09-.26.07-.05-.03-.06-.03,0,0-.03-.03-.03-.03,0,0,.09.07.13.14.18.26.03.07.05.19.05.24,0,.2-.04.4-.05.59-.08.86-.16,1.72-.24,2.58-.16,1.73-.33,3.47-.49,5.2-.02.25.23.46.46.46.27,0,.43-.21.46-.46.15-1.58.3-3.16.45-4.75.08-.8.15-1.6.23-2.4.06-.66.24-1.36-.09-1.98-.14-.26-.36-.53-.65-.61-.33-.1-.65.06-.8.36-.26.53.53.99.79.46h0Z"/>
    <path class="cls-1" d="M387.42,18.14c.04-.05.09-.1.14-.14l-.09.07c.06-.05.13-.08.2-.11l-.11.05c.08-.03.17-.06.25-.07l-.12.02c.09-.01.18-.01.26,0l-.12-.02c.08.01.15.03.23.06l-.11-.05c.07.03.13.06.18.1l-.09-.07s.02.02.03.03c.04.04.09.08.15.09.05.03.11.04.18.04.11,0,.25-.05.32-.13s.14-.2.13-.32c0-.12-.04-.25-.13-.32-.07-.05-.13-.11-.21-.15s-.15-.07-.23-.1c-.13-.05-.26-.07-.4-.08-.05,0-.1,0-.14,0-.09,0-.18.02-.26.04-.13.03-.26.08-.37.15-.08.04-.15.1-.22.16-.04.04-.08.08-.12.12-.04.04-.08.09-.09.15-.03.05-.04.11-.04.18,0,.11.05.25.13.32s.2.14.32.13l.12-.02c.08-.02.15-.06.2-.12h0Z"/>
    <path class="cls-1" d="M390.86,20.65c.13-.11.36.03.45.14.18.21.17.56.16.82-.03.7-.14,1.4-.22,2.1-.16,1.45-.31,2.9-.47,4.35s-.32,2.95-.47,4.42c-.08.74-.16,1.47-.24,2.21-.05.47-.05,1.01.34,1.34.42.35,1,.15,1.13-.38.12-.45-.21-1-.73-.81-.55.2-.31,1.09.24.88,0,0-.4-.29-.4-.29,0-.02.02-.05.03-.06.03-.06.26,0,.3-.06,0-.01-.03-.09-.03-.1.03-.24.02-.5.05-.75.07-.66.14-1.32.21-1.98.14-1.27.27-2.54.41-3.81s.28-2.59.42-3.89c.07-.64.14-1.27.2-1.91.06-.55.17-1.13.12-1.69s-.28-1.06-.78-1.32c-.46-.25-.98-.21-1.38.14-.45.39.2,1.03.65.65h0Z"/>
    <path class="cls-1" d="M391.67,31.32c.41.93,1.4,1.42,2.37,1.5,1.08.09,2.09-.43,2.9-1.1s1.72-1.63,2.05-2.69c.3-.96-.03-2.17-1-2.62-1.14-.53-2.16.47-2.86,1.26s-1.29,1.72-1.66,2.73c-.72,1.91-.56,4.11.79,5.7s3.63,2.34,5.52,1.35c.52-.27.06-1.06-.46-.79-1.27.66-2.82.23-3.86-.66-.54-.46-1-1.05-1.24-1.73-.28-.79-.33-1.66-.18-2.49s.49-1.66.95-2.39,1.07-1.51,1.79-2c.32-.21.67-.31.99-.05.24.2.4.52.43.83.08.88-.66,1.69-1.23,2.28-.66.68-1.51,1.39-2.5,1.46-.81.06-1.65-.27-1.99-1.05-.1-.23-.43-.28-.63-.16-.23.14-.26.4-.16.63h0Z"/>
    <path class="cls-1" d="M380.34,48.9c.78-1.75.3-3.75-.98-5.15-1.12-1.22-3.86-2.37-5.07-.64-.67.95-.37,2.27-.26,3.34.14,1.45.24,2.91.31,4.36.14,2.95.12,5.91-.04,8.86-.19,3.4-.57,6.78-1.15,10.13-.1.58.78.82.88.24.86-4.99,1.31-10.05,1.31-15.11,0-2.55-.11-5.1-.33-7.64-.05-.61-.11-1.21-.18-1.81-.05-.52-.13-1.11.07-1.61.41-1.01,1.9-.73,2.67-.34,1.7.85,2.76,3.1,1.96,4.9-.24.53.55,1,.79.46h0Z"/>
    <path class="cls-1" d="M369.75,54.99c2.53-.55,4.95-1.6,7.08-3.06.2-.14.3-.4.16-.63-.12-.2-.42-.31-.63-.16-2.07,1.42-4.4,2.43-6.86,2.97-.24.05-.38.33-.32.56.07.25.32.37.56.32h0Z"/>
    <path class="cls-1" d="M380.68,50.44c-.06-.06-.05-.03.03.07.02.06.02.12-.02.17-.02-.03.06-.03.01-.02.05-.03.05-.03.01-.01.05-.01.06-.02.03,0,0,0-.1-.01-.08-.02.09-.06.17.57.18.64.04.84.07,1.68.11,2.52.08,1.69.15,3.39.23,5.08l.9-.12c-.67-2.73-.14-5.68,1.41-8.03.14-.21.04-.51-.16-.63-.22-.13-.49-.04-.63.16-1.68,2.55-2.22,5.77-1.5,8.73.12.5.92.4.9-.12-.07-1.65-.15-3.3-.22-4.96-.04-.83-.07-1.65-.11-2.48-.03-.62-.11-1.47-.83-1.67s-1.55.75-.91,1.34c.44.4,1.09-.25.65-.65h0Z"/>
    <path class="cls-1" d="M386.66,49.01c.3-.11.49-.07.55.13-.01-.05-.01-.05,0,0,.01-.09-.05.09-.07.12-.16.14-.24.17-.25.08h0s.07.15.06.14c.12.34.1.76.12,1.12.05.91.05,1.82,0,2.73-.11,1.81-.43,3.6-.95,5.34l.9.12c.21-3.28.51-7.08,3.3-9.29.64-.51,1.39-.86,2.19-1.02.58-.12.33-1-.24-.88-1.63.33-2.98,1.39-3.96,2.7-1.1,1.49-1.63,3.31-1.89,5.12-.16,1.12-.24,2.25-.32,3.37-.03.53.76.6.9.12.57-1.91.91-3.89,1-5.88.05-1.01.03-2.02-.06-3.03-.03-.39-.06-.8-.27-1.13s-.67-.56-1.04-.35c-.31.18-.39.58-.28.9.14.42.65.59.97.24.4-.43-.25-1.08-.65-.65h0Z"/>
    <path class="cls-1" d="M397.31,49.45c.89-.04,1.57-.93,1.31-1.79-.06-.2-.24-.33-.44-.34-1.63-.09-3.41.02-4.74,1.06-1.13.89-1.82,2.45-1.24,3.85.54,1.32,1.86,1.99,2.86,2.91.41.38.69.86.83,1.4.06.25.1.5.07.76-.02.17-.09.39-.19.51-.49.62-1.58.22-2.21.04-.95-.28-1.85-.66-2.71-1.15-.51-.29-.98.5-.46.79.77.44,1.58.8,2.42,1.09s1.77.6,2.62.43c1.38-.27,1.66-1.78,1.27-2.93-.2-.6-.54-1.16-1-1.59-.52-.47-1.1-.87-1.63-1.32-.48-.41-.95-.89-1.12-1.53s.03-1.3.39-1.84c1.04-1.56,3.14-1.66,4.83-1.57l-.44-.34c.08.28-.12.62-.42.63-.59.02-.59.94,0,.92h0Z"/>
    <path class="cls-1" d="M401.29,39.7c.27,7.13-.07,14.29-1.05,21.36-.08.58.8.83.88.24.99-7.16,1.36-14.38,1.08-21.6-.02-.59-.94-.59-.92,0h0Z"/>
    <path class="cls-1" d="M398.33,50.84l7.66-2.5c.24-.08.39-.32.32-.56-.06-.23-.33-.4-.56-.32-2.55.83-5.1,1.67-7.66,2.5-.24.08-.39.32-.32.56.06.23.33.4.56.32h0Z"/>
    <path class="cls-1" d="M385.87,39.27l1.36.86c.05.03.11.05.17.05.06.01.12.01.18,0,.11-.03.22-.11.27-.21.06-.11.08-.24.05-.35s-.11-.21-.21-.27l-1.36-.86c-.05-.03-.11-.05-.17-.05-.06-.01-.12-.01-.18,0-.11.03-.22.11-.27.21-.06.11-.08.24-.05.35s.11.21.21.27h0Z"/>
  </g>
</svg>