<?xml version="1.0" encoding="UTF-8"?>
<svg id="Layer_1" data-name="Layer 1" xmlns="http://www.w3.org/2000/svg" viewBox="0 0 443.63 423.75">
  <defs>
    <style>
      .cls-1 {
        fill: #fff;
      }
    </style>
  </defs>
  <g id="_2" data-name="2">
    <path class="cls-1" d="M154.3,38.46c-.49-.21-.81-.52-1.03-1.01v.38c2.3-3.12,6.72-1.53,9.57-.27s5.69,2.85,8.13,4.86c5.17,4.24,8.67,10.97,7.38,17.8-.29,1.53-.9,3.07-2.13,4.09-1.3,1.09-3.07,1.4-4.72,1.41-3.44.03-6.88-.98-9.99-2.39s-6.06-3.31-8.85-5.32c-2.56-1.84-5.09-3.83-7.04-6.32-1.08-1.37-1.97-2.92-2.47-4.6s-.88-3.97.84-5.12c1.49-.99,3.56-1.01,5.27-.9,2.04.14,4.03.7,5.85,1.63.43.22.81-.43.38-.65-1.68-.86-3.48-1.42-5.36-1.65-1.73-.21-3.65-.22-5.32.35-1.46.5-2.6,1.53-2.79,3.12s.31,3.41.96,4.89c1.36,3.12,3.86,5.62,6.47,7.74,2.89,2.34,6.01,4.49,9.29,6.27s6.86,3.15,10.61,3.57c3.33.37,7.11-.06,8.85-3.33s1.34-7.32.42-10.63c-.97-3.48-2.94-6.58-5.53-9.08s-5.44-4.28-8.54-5.78-6.92-3.3-10.24-1.55c-.68.36-1.23.86-1.69,1.47-.08.11-.05.26,0,.38.27.59.71,1.02,1.3,1.28.44.19.82-.46.38-.65h0Z"/>
    <path class="cls-1" d="M140.53,71.53c2.14-1.82,4.29-3.64,6.43-5.46.31-.26-.03-.69-.36-.63-3.54.66-6.77,2.29-9.86,4.08s-6.39,3.81-9.54,5.8c-6.34,4.01-12.54,8.23-18.59,12.67-3.43,2.51-6.81,5.09-10.14,7.73-.38.3.16.83.53.53,11.67-9.25,23.96-17.72,36.78-25.3,3.46-2.05,7.03-4.04,11.03-4.79l-.36-.63-6.43,5.46c-.37.31.16.84.53.53h0Z"/>
    <path class="cls-1" d="M133.03,65.28l-1.66.2c-.38.05-.56.65-.1.74,4.95.89,10.08.55,14.85-1.03l-.47-.36c-.03.45-.5.76-.92.65-.47-.12-.67.6-.2.72.91.24,1.81-.44,1.87-1.37.01-.24-.25-.43-.47-.36-4.65,1.53-9.64,1.89-14.45,1.03l-.1.74,1.66-.2c.47-.06.48-.81,0-.75h0Z"/>
    <path class="cls-1" d="M30.31,100.5c-.18-2.5.56-4.96,2.07-6.96l-.79-.21c.54,4.69.95,9.39,1.23,14.1.07,1.16.13,2.32.18,3.49.04.83.2,2.19-1.05,1.94-.93-.18-1.71-.87-2.46-1.4-.98-.69-1.97-1.39-2.95-2.08-2.18-1.53-4.36-3.07-6.55-4.6-.45-.32-.87.42-.43.73,2.13,1.5,4.26,3,6.39,4.49,1.04.73,2.08,1.46,3.11,2.19.8.57,1.61,1.24,2.6,1.47.8.19,1.66-.02,2.03-.82.19-.4.2-.85.18-1.28-.02-.67-.06-1.34-.09-2.01-.13-2.52-.29-5.03-.5-7.55-.23-2.9-.52-5.8-.85-8.69-.05-.43-.53-.56-.79-.21-1.59,2.1-2.37,4.75-2.19,7.38.04.54.89.55.85,0h0Z"/>
    <path class="cls-1" d="M35.58,95.25l1.44-1.09c.33-.25.24-.77-.21-.79-2.71-.12-5.39.39-8,1.07s-5.4,1.52-8.1,2.29c-.53.15-.3.97.23.82,2.65-.76,5.29-1.55,7.95-2.25s5.23-1.19,7.92-1.08l-.21-.79-1.44,1.09c-.43.33,0,1.07.43.73h0Z"/>
    <path class="cls-1" d="M34.87,101.41c-.21-.75-.18-1.51.08-2.24l-.78.1c1.58,2.18,1.16,5.09,1.68,7.6.13.64.33,1.27.6,1.86s.79,1.15,1.5.99c.61-.14.95-.76,1.13-1.31.24-.74.34-1.56.45-2.33.25-1.86.28-3.75.09-5.62l-.12.3s-.16.02-.15,0c0-.01.11.1.1.08.05.06.1.14.13.22.12.3.13.67.18.99.12.75.24,1.5.36,2.25.24,1.49.48,2.97.72,4.46.04.23.32.35.52.3.24-.07.33-.3.3-.52-.37-2.27-.73-4.54-1.1-6.81-.08-.47-.11-.95-.41-1.35-.24-.33-.68-.61-1.08-.36-.27.17-.3.39-.27.68.03.28.05.55.06.83.03.55.05,1.11.04,1.66-.01,1.1-.1,2.21-.28,3.3-.08.52-.17,1.06-.31,1.57-.07.27-.21.69-.49.82s-.49-.3-.59-.5c-.19-.38-.32-.79-.43-1.2-.22-.85-.32-1.73-.4-2.6-.18-1.97-.28-4.07-1.49-5.73-.22-.3-.65-.26-.78.1-.31.86-.34,1.81-.08,2.69.15.53.97.3.82-.23h0Z"/>
    <path class="cls-1" d="M42.61,99.85c.85,2.73,1.7,5.47,2.55,8.2.16.52.98.3.82-.23-.85-2.73-1.7-5.47-2.55-8.2-.16-.52-.98-.3-.82.23h0Z"/>
    <path class="cls-1" d="M50.9,98.86c.12-.61-.18-1.16-.8-1.32-.14-.03-.32,0-.41.11-1.2,1.39-2.57,3.03-2.58,4.97,0,1.47,1,3.11,2.49,3.44s2.73-.87,3.18-2.24c.61-1.89-.2-4.01.7-5.81l-.79-.21c.02,3.19.14,6.61,2.24,9.21.22.27.62.09.71-.19,1.05-3.12,2.1-6.23,3.15-9.35l-.63.25c2.16,1.56,1.9,4.99,2.01,7.34.16,3.18.33,6.36.48,9.54.13,2.77.11,6.18-2.4,7.98-2.33,1.67-5.45.15-7.45-1.37-2.28-1.74-3.91-4.24-4.58-7.02-.13-.53-.95-.31-.82.23.66,2.71,2.19,5.19,4.31,7s5.21,3.5,7.94,2.45,3.79-4.19,3.9-6.91c.07-1.83-.1-3.68-.19-5.51s-.19-3.76-.28-5.64c-.15-2.9.19-6.89-2.47-8.81-.24-.17-.55.02-.63.25-1.05,3.12-2.1,6.23-3.15,9.35l.71-.19c-1.93-2.39-1.98-5.68-1.99-8.61,0-.4-.6-.6-.79-.21-.71,1.43-.5,2.95-.54,4.49-.03,1.17-.43,2.94-1.82,3.18-1.47.25-2.5-1.53-2.42-2.8.1-1.64,1.3-3.02,2.32-4.2l-.41.11.21.27c-.1.54.72.76.82.23h0Z"/>
    <path class="cls-1" d="M51.55,112.82s.03-.02.04-.04c.03-.03.05-.07.08-.1,0,0,0-.01.01-.02.03-.04.05-.1.06-.14,0-.01.01-.03.01-.04,0,0,0-.02,0-.02,0-.04.01-.09.02-.13,0-.02,0-.03,0-.05,0-.05-.01-.11-.02-.16,0-.02,0-.03-.01-.05s0-.03-.01-.05c-.02-.05-.04-.1-.06-.15-.01-.03-.03-.06-.05-.09-.04-.05-.08-.11-.13-.16-.04-.03-.08-.07-.12-.09-.01,0-.03-.02-.04-.02-.04-.02-.08-.04-.12-.05,0,0-.02,0-.03,0-.05-.02-.11-.02-.16-.03-.02,0-.04,0-.05,0-.06,0-.11.01-.17.02-.06.01-.1.04-.14.08-.05.03-.08.07-.11.12-.03.05-.05.1-.05.16-.01.06-.01.11,0,.17l.04.1c.04.06.09.11.15.15l.1.04c.08.02.15.02.23,0,.01,0,.02,0,.04,0l-.11.02s.05,0,.08,0l-.11-.02s.05.01.08.02l-.1-.04s.05.03.08.05l-.09-.07s.06.05.08.08l-.07-.09s.05.07.07.11l-.04-.1s.03.08.03.12l-.02-.11s0,.07,0,.1l.02-.11s-.01.05-.02.08l.04-.1s-.02.04-.04.06l.07-.09s-.03.03-.04.05c-.04.04-.07.08-.09.14-.03.05-.04.11-.04.16,0,.06.01.11.04.16.02.05.05.1.09.14l.09.07c.07.04.14.06.21.06l.11-.02c.07-.02.13-.06.19-.11h0Z"/>
    <path class="cls-1" d="M55.65,111.52s.02-.06.03-.09l-.04.1c.06-.13.12-.26.21-.37l-.07.09c.04-.05.09-.1.14-.15l-.09.07s.08-.05.12-.07l-.1.04s.08-.03.11-.03l-.11.02s.07,0,.1,0l-.11-.02s.04,0,.06.02l-.1-.04s.03.02.04.03l-.09-.07s.03.03.04.04l-.07-.09s.03.04.04.07l-.04-.1s.02.07.03.1l-.02-.11s0,.08,0,.13l.02-.11s-.01.07-.03.1l.04-.1s-.02.04-.03.05l.07-.09s-.02.02-.03.03l.09-.07s-.02.01-.03.02l.1-.04s-.02,0-.03,0l.11-.02s-.02,0-.03,0l.11.02s-.03,0-.04-.01l.1.04s-.03-.01-.04-.02c-.05-.03-.1-.05-.16-.05-.06-.01-.11-.01-.17,0-.06.01-.1.04-.14.08-.05.03-.08.07-.11.12l-.04.1c-.02.08-.02.15,0,.23l.04.1c.04.06.09.11.15.15.01,0,.02.01.04.02.04.02.08.04.12.05,0,0,.01,0,.02,0,.04,0,.08.01.13.02,0,0,.01,0,.02,0,0,0,0,0,.01,0,.04,0,.08,0,.12-.02,0,0,0,0,0,0,0,0,0,0,.01,0,.03-.01.08-.03.11-.04,0,0,0,0,0,0,.04-.02.08-.05.11-.08,0,0,.01-.01.02-.02.03-.03.05-.06.07-.1,0,0,0,0,0-.01,0,0,.01-.02.02-.03.02-.04.04-.09.05-.13.02-.06.02-.12.03-.18,0-.03,0-.05,0-.08,0-.01,0-.03,0-.04,0-.05-.01-.1-.02-.15-.01-.06-.04-.12-.07-.17s-.07-.1-.1-.15c0,0-.02-.02-.02-.03,0,0,0,0-.01-.01-.03-.03-.06-.05-.1-.08-.04-.03-.09-.04-.13-.06-.01,0-.02,0-.04-.01-.07-.02-.15-.03-.22-.02-.08,0-.16.02-.23.04s-.15.06-.21.1-.13.09-.18.15-.1.12-.15.19c-.03.04-.05.08-.08.12-.07.11-.12.23-.17.35,0,.02-.02.04-.02.06-.02.06-.02.11,0,.17,0,.06.02.11.05.16.03.05.06.09.11.12.04.04.09.06.14.08l.11.02c.08,0,.15-.02.21-.06l.09-.07c.05-.05.09-.12.11-.19h0Z"/>
    <path class="cls-1" d="M64.5,92.11c.6-.31.73,1.69.75,1.91.08.92.16,1.83.24,2.75.17,1.9.34,3.81.5,5.71.15,1.76.39,3.53.44,5.29.03,1.21-.08,2.7-1.25,3.36l.63.25c-.57-1.62-.76-3.35-.53-5.06.12-.86.34-1.7.66-2.5.29-.72.66-1.61,1.32-2.08,1.49-1.04,2.94.96,3.54,2.1.84,1.61,1.47,3.35,1.8,5.14.16.83.21,1.77-.31,2.5-.42.58-1.1.93-1.78,1.1-1.21.31-3.48.24-3.63-1.41-.08-.86.43-1.7.88-2.39s.93-1.38,1.43-2.04c1.03-1.36,2.27-2.64,3.87-3.3.86-.35,1.83-.53,2.76-.36.48.08.96.2,1.07.75.09.47.03.99.04,1.47.02,2.25.04,4.5.06,6.74,0,.47.73.59.84.11.27-1.25.53-2.49.8-3.74.11-.53-.71-.76-.82-.23-.27,1.25-.53,2.49-.8,3.74l.84.11c-.02-2.5-.04-5-.06-7.49,0-.89-.12-1.72-1.04-2.1-.86-.35-1.88-.33-2.78-.16-2,.39-3.64,1.74-4.91,3.28-.67.82-1.27,1.69-1.86,2.56-.54.81-1.06,1.7-1.14,2.69-.15,1.94,1.75,2.79,3.41,2.76s3.43-.79,3.96-2.45c.32-1.01.09-2.12-.15-3.13-.26-1.08-.62-2.14-1.05-3.17-.68-1.58-1.68-3.71-3.54-4.15-2.29-.54-3.41,2.21-3.9,3.95-.64,2.28-.56,4.74.22,6.97.09.26.37.4.63.25,2.41-1.35,1.62-4.95,1.43-7.16-.32-3.6-.63-7.2-.95-10.79-.07-.75-.1-1.49-.56-2.12-.36-.5-.9-.71-1.46-.42-.49.25-.06.99.43.73h0Z"/>
    <path class="cls-1" d="M82.42,92.59c.09,4.53.03,9.09.37,13.61.16,2.14.45,4.27.89,6.37.15.72.2,1.94.84,2.43.5.39,1.39.07,1.31-.63-.06-.54-.91-.54-.85,0-.04-.43-.23-.89-.33-1.31s-.18-.82-.26-1.23c-.17-.86-.32-1.72-.44-2.58-.26-1.83-.39-3.68-.46-5.53-.14-3.71-.16-7.42-.23-11.13-.01-.55-.86-.55-.85,0h0Z"/>
    <path class="cls-1" d="M77.23,101.21l-.94-.45c-.5-.24-.87.41-.43.73,4.12,3.03,9.61,2.15,13.94.11,1.37-.64,2.69-1.4,3.97-2.2.47-.29.04-1.02-.43-.73-2.72,1.67-5.6,3.22-8.78,3.77-2.85.49-5.91.05-8.28-1.68l-.43.73.94.45c.49.24.92-.5.43-.73h0Z"/>
    <path class="cls-1" d="M76.51,97.34c.12-.09.26-.16.4-.22l-.1.04c.17-.07.35-.12.54-.15l-.11.02c.18-.02.37-.03.56,0l-.11-.02c.09.01.19.03.28.06.11.03.23.01.33-.04.09-.05.17-.15.2-.25.02-.11.02-.23-.04-.33s-.15-.17-.25-.2c-.27-.08-.56-.11-.84-.08-.15.01-.31.03-.46.07s-.3.1-.44.16c-.13.06-.25.13-.37.21-.09.07-.16.14-.2.25-.03.1-.02.24.04.33s.15.17.25.2.24.02.33-.04h0Z"/>
    <path class="cls-1" d="M94.16,105.77c.91-.56.66-1.91-.12-2.47-.48-.34-1.11-.41-1.69-.38s-1.21.11-1.8.24c-1.13.24-2.29.95-2.44,2.2-.08.63.21,1.17.59,1.65.41.51.87.98,1.3,1.46,1.05,1.16,2.09,2.32,3.14,3.48v-.6c-1.34,1.09-3.64.72-4.58-.74-.3-.46-1.03-.03-.73.43,1.26,1.94,4.14,2.36,5.92.91.18-.15.14-.45,0-.6-.79-.88-1.58-1.76-2.37-2.63-.39-.43-.78-.87-1.17-1.3-.35-.39-.77-.77-1.05-1.22-.21-.34-.27-.7-.1-1.08.18-.41.54-.7.94-.89.44-.21.94-.29,1.42-.35s.95-.13,1.42-.1c.43.03.81.18.99.54.07.14.1.28.08.44,0-.07-.01.07-.01.07,0,.03-.02.06-.03.09,0-.03,0-.03,0,0-.03.06-.06.08-.12.12-.47.29-.04,1.02.43.73h0Z"/>
  </g>
</svg>