<?xml version="1.0" encoding="UTF-8"?>
<svg id="Layer_1" data-name="Layer 1" xmlns="http://www.w3.org/2000/svg" viewBox="0 0 443.63 423.75">
  <defs>
    <style>
      .cls-1 {
        fill: #fff;
      }
    </style>
  </defs>
  <g id="_1" data-name="1">
    <path class="cls-1" d="M284.18,303.62c2.9,1.84,6.26,1.37,9.51,1.2,1.94-.1,3.86-.54,5.78-.86,2.09-.35,4.17-.69,6.26-1.02,8.06-1.26,16.15-2.36,24.25-3.36,4.45-.55,8.9-1.07,13.35-1.57.47-.05.48-.8,0-.75-7.77.88-15.53,1.81-23.28,2.85s-16.15,2.31-24.19,3.71c-1.83.32-3.74.41-5.6.45-2,.05-3.98-.21-5.7-1.3-.41-.26-.79.39-.38.65h0Z"/>
    <path class="cls-1" d="M292.89,296c-1.92-.5-3.66.68-4.94,2-.7.72-1.35,1.5-2.11,2.17s-1.6,1.24-2.45,1.79-1.7,1.03-2.52,1.59c-.69.47-1.39,1.05-1.73,1.84-.32.73-.19,1.55.35,2.14s1.33.86,2.05,1.14c2,.77,3.77,2.08,5.08,3.79.18.23.47.25.65,0,.62-.88.82-1.96.85-3.02.04-1.24-.07-2.48-.12-3.72-.11-2.67-.22-5.34-.33-8.01l-.74.1c.48,3.57.96,7.14,1.44,10.71l.72-.2c-.73-2.35-1.46-4.71-2.19-7.06-.1-.32-.66-.39-.72,0-.18,1.18-.36,2.35-.54,3.53-.08.51-.13,1.03-.24,1.53-.08.34-.19.8-.5,1.01-.38.25-.74-.12-.95-.41-.32-.43-.6-.9-.86-1.36-.55-.97-1.01-2-1.36-3.05-.13-.39-.73-.34-.74.1-.02,2.06-.07,4.12-.16,6.18-.02.48.73.48.75,0,.08-2.06.13-4.12.16-6.18l-.74.1c.43,1.26.97,2.47,1.66,3.61.47.78,1.17,2.13,2.3,1.82.99-.27,1.17-1.52,1.3-2.37.22-1.43.44-2.86.65-4.3h-.72c.73,2.35,1.46,4.71,2.19,7.06.15.48.79.27.72-.2-.48-3.57-.96-7.14-1.44-10.71-.06-.42-.75-.32-.74.1.11,2.57.21,5.13.32,7.7.05,1.19.13,2.38.14,3.58,0,1.09-.11,2.18-.75,3.1h.65c-1.04-1.36-2.33-2.5-3.82-3.34-.73-.41-1.51-.69-2.29-1.02-.64-.27-1.42-.67-1.46-1.46s.72-1.46,1.3-1.89c.73-.53,1.53-.98,2.29-1.46,1.59-1,3.06-2.08,4.34-3.47s2.94-3.26,5.05-2.71c.47.12.67-.6.2-.72h0Z"/>
    <path class="cls-1" d="M363.18,268.92l1.44-.3-.42-.55c-.43.87-1.27,1.36-2.15,1.69-1.08.41-2.21.71-3.31,1.02-2.43.68-4.89,1.26-7.37,1.74-.34.07-.68.13-1.01.19-.29.05-.48.16-.51.47-.06.53.42.89.91.81s.27-.8-.2-.72c.04,0,.05-.04.02.03l-.22.17c2.82-.51,5.62-1.15,8.39-1.92,1.24-.34,2.52-.66,3.71-1.15.98-.4,1.92-.98,2.4-1.96.15-.3-.09-.62-.42-.55l-1.44.3c-.47.1-.27.82.2.72h0Z"/>
    <path class="cls-1" d="M356.28,273.1l.47-1.37-.74-.1c-.12,4.84-.24,9.68-.36,14.52-.01.48.74.48.75,0,.12-4.84.24-9.68.36-14.52.01-.44-.6-.49-.74-.1l-.47,1.37c-.16.46.57.65.72.2h0Z"/>
    <path class="cls-1" d="M369.55,279.47c.07-1.39-.08-3.31-1.7-3.75-.8-.21-1.59.14-2.21.63-.69.55-1.18,1.3-1.58,2.08-.44.87-.8,1.78-1.07,2.72-.25.85-.52,1.88.1,2.64.49.6,1.4.73,2.11.5.84-.28,1.41-.99,1.9-1.68,1.27-1.81,2.29-3.79,3.09-5.85l-.74-.1c-.03.77-.06,1.53-.09,2.3-.03.71-.08,1.43-.06,2.15.04,1.23.42,2.56,1.62,3.12.58.27,1.23.31,1.81,0,.42-.23.05-.88-.38-.65-.47.26-1.03.09-1.43-.22-.54-.41-.77-1.08-.84-1.73-.09-.78-.02-1.57.01-2.34.04-.87.07-1.75.11-2.62.02-.45-.59-.47-.74-.1-.62,1.6-1.39,3.14-2.3,4.59-.41.66-.83,1.36-1.38,1.9-.45.44-1.08.75-1.72.54-.71-.24-.65-1.03-.51-1.63.19-.82.47-1.64.81-2.41.31-.7.66-1.43,1.16-2.02.42-.49.98-1.02,1.65-1.1s1.2.36,1.42.95c.25.67.24,1.41.21,2.11-.03.48.72.48.75,0h0Z"/>
    <path class="cls-1" d="M374.62,269.78c.9,1.85.45,4.13.27,6.09-.2,2.29-.4,4.58-.6,6.87-.04.43.62.49.74.1.4-1.29.94-2.53,1.63-3.7.34-.58.72-1.14,1.12-1.68.37-.49.8-1.15,1.36-1.44.65-.34,1.11.42,1.43.89.37.53.67,1.11.85,1.73.32,1.09.24,2.32-.61,3.15-.71.69-1.97,1.12-2.83.43-.37-.3-.91.23-.53.53.97.78,2.28.69,3.3.03,1.17-.75,1.71-2.05,1.57-3.42-.08-.77-.34-1.51-.71-2.19-.34-.63-.81-1.41-1.43-1.8-.71-.44-1.46-.08-1.99.45s-1.04,1.21-1.48,1.85c-1.05,1.52-1.85,3.2-2.4,4.96l.74.1c.21-2.38.42-4.76.62-7.13.18-2.06.55-4.28-.4-6.21-.21-.43-.86-.05-.65.38h0Z"/>
    <path class="cls-1" d="M386.8,277.54c.14-.52.5-.9,1.01-1.15.46-.22,1.1-.29,1.6-.2.62.11,1.11.38,1.49.89.43.56.64,1.27.66,1.96s-.13,1.46-.44,2.11-.87,1.38-1.62,1.61c-.65.2-1.22-.11-1.53-.63-.34-.57-.44-1.28-.45-1.95,0-.54.03-1.07.07-1.61s.08-1.06.19-1.58c.09-.38.24-.81.6-.97.12-.05.25-.08.41-.06.1.01.21.07.26.15.26.4.91.03.65-.38-.24-.37-.66-.56-1.1-.52-.48.04-.88.28-1.15.67s-.4.91-.46,1.39c-.08.59-.14,1.19-.17,1.79-.05.91-.08,1.85.2,2.73.25.78.77,1.51,1.61,1.72.99.24,1.96-.34,2.57-1.08s.95-1.6,1.07-2.52c.23-1.7-.4-3.64-2.12-4.29-1.32-.51-3.14-.12-3.85,1.19-.09.17-.16.35-.21.53-.13.47.6.67.72.2h0Z"/>
    <path class="cls-1" d="M394.41,277.07c1.13-.8,2.89-1.97,4.29-1.14,1.25.74,1.22,2.5.67,3.66-.35.76-.87,1.43-1.41,2.06-.39.45-.98,1.13-1.65.82-.56-.25-.82-.97-.94-1.52-.15-.7-.14-1.47-.03-2.18.27-1.7,1.12-3.26,2.43-4.37.15-.13.13-.4,0-.53-.15-.15-.38-.13-.53,0-1.33,1.12-2.25,2.73-2.58,4.44-.17.88-.2,1.78-.05,2.67.12.75.46,1.54,1.09,2,.76.56,1.67.29,2.31-.3.33-.3.62-.67.9-1.02.3-.38.58-.76.83-1.18.46-.78.78-1.68.74-2.6-.03-.8-.31-1.6-.87-2.19-1.62-1.68-4.06-.38-5.59.71-.17.12-.24.33-.13.51.1.16.35.25.51.13h0Z"/>
    <path class="cls-1" d="M372.28,293.35l.87-1.27c.12-.18.02-.4-.13-.51-1.02-.78-2.58-.14-3.11.93-.34.69-.34,1.49-.13,2.21s.63,1.35,1.1,1.94c.68.88,1.89,2.16,1.13,3.33-.58.89-1.97.88-2.9.81-.33-.03-.66-.06-.98-.13-.29-.06-.55-.18-.49-.51.14-.83,1.24-.7,1.84-.61.2.03.4-.05.46-.26.05-.18-.06-.43-.26-.46-.78-.11-1.73-.22-2.35.4-.47.47-.65,1.33-.11,1.83.3.28.71.35,1.1.41.32.05.65.09.97.11.63.04,1.28,0,1.89-.17s1.12-.49,1.46-1c.39-.58.45-1.33.23-1.99-.49-1.46-1.91-2.38-2.35-3.85-.23-.75-.19-1.64.44-2.18.47-.41,1.17-.55,1.69-.15l-.13-.51-.87,1.27c-.27.4.38.78.65.38h0Z"/>
    <path class="cls-1" d="M376.66,292.79c-.01-.1-.03.01-.04.05-.02.05-.06-.04.01,0-.04-.02.07.02.05,0,.1.07.07.36.05.49-.07.6-.15,1.19-.17,1.8-.04,1.25.07,2.5.34,3.72.11.5.24,1.04.66,1.37s.93.32,1.39.09.8-.65,1.07-1.06c.35-.52.65-1.07.97-1.61.76-1.27,1.52-2.53,2.28-3.8l-.7-.19c.22,2.61.45,5.22.67,7.83.04.48.79.48.75,0-.22-2.61-.45-5.22-.67-7.83-.03-.36-.5-.53-.7-.19-.68,1.14-1.37,2.28-2.05,3.42-.34.57-.68,1.14-1.03,1.71-.24.4-.54.85-.98,1.07-.4.19-.67-.07-.8-.45-.19-.57-.29-1.2-.36-1.8-.15-1.23-.15-2.48.02-3.7.07-.52.17-1.25-.41-1.54-.44-.22-1.17.03-1.11.61.02.2.16.38.38.38.19,0,.4-.17.38-.38h0Z"/>
    <path class="cls-1" d="M387.51,289.24l.71-1.45-.69-.09c.77,2.16.46,4.61-.84,6.51-.15.22.01.47.22.55.83.31,1.65-.16,2.31-.64.34-.25.67-.52,1.02-.75.27-.18.6-.36.89-.37.39,0,.68.34.8.76.14.5.11,1.07,0,1.58-.19.92-.78,2.02-1.82,2.17-.9.13-2.17-.65-1.89-1.68.13-.47-.6-.67-.72-.2-.33,1.2.66,2.27,1.77,2.56,1.27.32,2.44-.46,3-1.57.29-.58.45-1.23.48-1.88s-.05-1.4-.48-1.93c-.32-.4-.82-.6-1.33-.54-.46.06-.87.3-1.24.56-.45.31-.87.68-1.34.96-.41.25-.81.4-1.25.24l.22.55c1.4-2.04,1.75-4.75.92-7.08-.1-.28-.53-.4-.69-.09l-.71,1.45c-.21.43.43.81.65.38h0Z"/>
    <path class="cls-1" d="M396.89,292.59c-.09-.4.61-.45.84-.31.48.3.55,1.05.6,1.56.15,1.49.14,2.99,0,4.48s-.45,2.94-.9,4.36c-.32,1.03-.77,2.26-1.78,2.79-.5.26-1.05.2-1.5-.13-.4-.28-.71-.77-.43-1.24.25-.42-.4-.79-.65-.38-.74,1.23.55,2.52,1.75,2.65,1.53.17,2.53-1.37,3.02-2.6.69-1.72,1.05-3.62,1.24-5.46.1-.95.13-1.9.11-2.86-.02-.84-.03-1.75-.25-2.57-.19-.72-.71-1.47-1.54-1.45-.72.02-1.4.58-1.23,1.34.1.47.83.27.72-.2h0Z"/>
    <path class="cls-1" d="M395.08,287.9c.11-.07.23-.12.35-.18l-.09.04c.24-.1.49-.17.75-.2h-.1c.26-.02.52-.02.78.01h-.1c.11,0,.22.02.33.05.19.05.42-.06.46-.26s-.06-.41-.26-.46c-.84-.21-1.75-.09-2.5.35-.17.1-.24.34-.13.51s.33.24.51.13h0Z"/>
    <path class="cls-1" d="M401.24,296.11c1.37.84,3.23.71,4.45-.35.56-.48.96-1.15,1.16-1.86.1-.36.15-.75.14-1.13s-.06-.77-.27-1.07c-.26-.37-.72-.49-1.14-.33-.39.15-.69.44-.97.74-.56.61-1.1,1.26-1.5,1.99-.71,1.29-1,2.93-.07,4.18.86,1.16,2.51,1.86,3.76.87.16-.13.13-.4,0-.53-.16-.16-.37-.13-.53,0-.33.26-.78.32-1.18.23-.47-.11-.87-.37-1.21-.72s-.58-.8-.66-1.29c-.04-.24-.03-.61.02-.89.05-.32.15-.64.27-.94.26-.62.65-1.2,1.07-1.72.22-.27.46-.54.71-.8.16-.17.43-.46.69-.45.19.01.23.33.25.49.03.28.03.58-.03.86-.11.59-.37,1.14-.78,1.58-.97,1.04-2.6,1.22-3.8.49-.41-.25-.79.4-.38.65h0Z"/>
    <path class="cls-1" d="M412.87,292.58c.52-.16.71-.73.54-1.22-.08-.23-.23-.45-.45-.56-.11-.06-.24-.09-.36-.09-.24,0-.36.14-.5.31-.91,1.04-1.83,2.16-2.24,3.5-.36,1.19-.18,2.45.58,3.45s1.93,1.46,3.08.96c1.24-.53,1.85-1.96,2.09-3.21.04-.2-.06-.4-.26-.46-.18-.05-.42.06-.46.26-.15.79-.43,1.63-.99,2.23-.51.54-1.25.79-1.93.51s-1.19-.97-1.41-1.67c-.27-.84-.11-1.72.26-2.51.48-1.03,1.23-1.89,1.97-2.73l-.27.11s.06,0,.09,0c.05,0-.05-.02,0,0,.04.01-.04-.04.01,0-.03-.02-.03-.02,0,0,0,0,.06.07.04.04-.03-.04.03.05.03.05.01.03.02.04,0,0,.01.03.02.06.02.08,0,0,.01.08,0,.04,0-.05,0,.06,0,.05,0,.02,0,.05,0,.07,0-.06,0-.01,0,.02-.02.05.01-.05,0,0,0,.03-.04.06,0,.02-.02.03-.03.02,0,0-.1.05.07-.02-.04.02-.46.14-.26.87.2.72h0Z"/>
    <path class="cls-1" d="M417.65,285.42c-.35,4.25,0,8.55,1,12.69l.69-.29c-.5-.99-1.33-3.14.02-3.85.44-.23.97-.23,1.44-.33s.93-.25,1.37-.43c.89-.37,1.7-.89,2.41-1.54.36-.33-.17-.86-.53-.53-.79.72-1.73,1.27-2.75,1.59-.91.29-2.03.21-2.76.91-1.23,1.17-.49,3.28.14,4.56.2.39.78.11.69-.29-.99-4.08-1.31-8.31-.97-12.49.04-.48-.71-.48-.75,0h0Z"/>
    <path class="cls-1" d="M427.48,290.65l.72-1.74c.14-.34-.4-.65-.63-.36-1.04,1.27-1.21,2.88-1.06,4.47.08.84.23,1.67.37,2.49.07.4.14.8.2,1.2.04.3.13.69,0,.98-.16.35-.75-.18-.93-.3-.49-.31-.97-.62-1.46-.93-.41-.26-.79.39-.38.65.46.29.92.59,1.38.88.4.25.84.62,1.34.57.94-.1.89-1.22.79-1.91-.24-1.7-.71-3.41-.6-5.14.06-.88.32-1.75.88-2.44l-.63-.36-.72,1.74c-.08.19.08.41.26.46.22.06.38-.07.46-.26h0Z"/>
  </g>
</svg>