<?xml version="1.0" encoding="UTF-8"?>
<svg id="Layer_1" data-name="Layer 1" xmlns="http://www.w3.org/2000/svg" viewBox="0 0 400 400">
  <defs>
    <style>
      .cls-1 {
        fill: #ee579e;
      }

      .cls-2 {
        fill: #fff;
      }

      .cls-3 {
        fill: none;
        stroke: #231f20;
        stroke-linecap: round;
        stroke-linejoin: round;
        stroke-width: 3.66px;
      }

      .cls-4 {
        fill: #9e1f63;
      }
    </style>
  </defs>
  <g>
    <path class="cls-1" d="M290.56,265.9c-12.33-64.86,66.81-95.12,66.16-163.67-.51-54.2-28.04-70.22-60.59-62.83-40.43,9.17-38.39,53.93-38.39,53.93l.21-.05s-14.44-41.94-54.87-32.77c-32.55,7.39-51.96,34.06-32.67,84,24.4,63.16,108.02,56.49,120.35,121.34l-.21.05Z"/>
    <path class="cls-2" d="M179.87,177.28l58.62-36.87s16.61-13.64,25.15-.23c16.27,25.53-7.42,37.09-7.42,37.09l-45.2,29.45-31.16-29.44Z"/>
    <path class="cls-3" d="M73.57,131.8c-.75-4.62-8.21-6.66-12.46-7.41s-8.57.67-12.45,2.69c-2.19,1.14-4.32,2.5-6.05,4.36-4.11,4.43-5.41,11.19-5.1,17.49.31,6.3,2,12.4,3.02,18.61,2.18,13.23,1.27,27.06-2.63,39.81"/>
    <path class="cls-3" d="M35.98,213.75c-3.97,9.32-12.35,22.87-15.52,33.76-2.8,9.64-17.95,55.39-20.46,65.12"/>
    <path class="cls-3" d="M76.5,138.76c2.24,7.96,4.47,15.92,6.71,23.88,2.99,10.66,6,21.42,6.8,32.53,1.39,19.46-4.09,39.08-1.62,58.41"/>
    <path class="cls-3" d="M92.01,234.54c1.64-7.62,15.46-18.43,21.95-21.73,40.63-20.65,80.06-44.12,117.97-70.22,5.6-3.85,11.38-7.86,17.93-8.92s14.11,1.68,16.9,8.24"/>
    <path class="cls-3" d="M269.26,147.87c.69,8.8,2.27,16.33-3.31,22.73-4.66,5.34-12.52,10.96-18.54,14.31-32.51,18.08-63.66,39.09-93.02,62.74"/>
    <path class="cls-3" d="M205.69,218.29c6.64,5.64,18.38,18.87,14.82,27.19-3.56,8.32-16.24,12.94-23.47,17.63-7.23,4.69-20.66,11.84-26.16,17.69"/>
    <path class="cls-3" d="M215.65,260.27c3.11,1.7,5.23,4.98,6.86,8.33,1.47,3.03,2.66,6.4,2.36,9.81-.31,3.5-2.15,6.63-4.33,9.21-6.25,7.4-15.21,11.21-22.73,17.04-4.44,3.44-8.39,7.62-11.69,12.35"/>
    <path class="cls-3" d="M211.1,302.96c5.68,4.11,15.29,17.29,7.03,31.49-3.65,6.28-30.05,25.17-36.12,28.55-31.43,17.49-21.86,11.24-50.23,24.77-25.05,11.95-40.08,11.2-67.04,6.36-14-2.51-21.29-16.21-36.49-10.56"/>
    <path class="cls-4" d="M218.6,121.09c5.75,4.43,7.47,9.35,17.35,7.78,9.41-1.49,25.31-5.16,34.71,15.45,8.58,18.8-1.64,25.61-5.34,36.92-3.7,11.31-1.26,16.87-1.26,16.87l-2.21-3.68c-5.55-7.24,4.07-29.17-4.63-45.48-9.66-18.11-17-13-24.38-14.54-7.38-1.55-14.26-13.33-14.26-13.33Z"/>
  </g>
  <path class="cls-2" d="M256.68,36.68c-4.88-8.18-5.99-18.3-3.24-27.39.85-2.83-3.57-4.04-4.42-1.22-3.08,10.23-1.77,21.73,3.71,30.92,1.51,2.53,5.47.23,3.95-2.31h0Z"/>
  <path class="cls-2" d="M378.19,34.67c7.03-7.18,14.7-13.71,22.97-19.43,1.02-.7,1.48-2.01.82-3.13-.59-1.01-2.11-1.53-3.13-.82-8.59,5.94-16.59,12.69-23.9,20.14-2.06,2.11,1.17,5.35,3.24,3.24h0Z"/>
  <path class="cls-4" d="M281.64,27.54c-.28-8.47,2.06-16.83,6.89-23.82.7-1.02.19-2.54-.82-3.13-1.14-.67-2.43-.2-3.13.82-5.25,7.6-7.82,16.92-7.51,26.13.1,2.94,4.68,2.95,4.58,0h0Z"/>
  <path class="cls-4" d="M307.35,19.28c2.29-4.37,4.57-8.75,6.86-13.12.55-1.06.31-2.54-.82-3.13-1.05-.56-2.54-.31-3.13.82-2.29,4.37-4.57,8.75-6.86,13.12-.55,1.06-.31,2.54.82,3.13,1.05.56,2.54.31,3.13-.82h0Z"/>
  <path class="cls-4" d="M332.87,191.93c5.25,6.09,12.65,9.99,20.66,10.78,1.23.12,2.29-1.14,2.29-2.29,0-1.34-1.05-2.17-2.29-2.29-6.75-.66-12.99-4.3-17.42-9.44-.81-.94-2.41-.83-3.24,0-.93.93-.81,2.3,0,3.24h0Z"/>
  <path class="cls-4" d="M324.49,209.27c5.95,5.03,11.9,10.05,17.85,15.08.94.8,2.31.93,3.24,0,.82-.82.95-2.44,0-3.24-5.95-5.03-11.9-10.05-17.85-15.08-.94-.8-2.31-.93-3.24,0-.82.82-.95,2.44,0,3.24h0Z"/>
</svg>