<?xml version="1.0" encoding="UTF-8"?>
<svg id="Layer_1" data-name="Layer 1" xmlns="http://www.w3.org/2000/svg" viewBox="0 0 400 400">
  <defs>
    <style>
      .cls-1 {
        fill: none;
        stroke: #231f20;
        stroke-linecap: round;
        stroke-linejoin: round;
        stroke-width: 3.09px;
      }

      .cls-2 {
        fill: #f6921e;
      }

      .cls-3 {
        fill: #ffdd15;
      }

      .cls-4 {
        fill: #ec1c24;
      }
    </style>
  </defs>
  <path class="cls-2" d="M200,106.86C89.72,106.86,0,196.58,0,306.86h102.9c0-53.54,43.56-97.1,97.1-97.1,14.44,0,28.15,3.19,40.48,8.87l42.9-93.49c-25.4-11.7-53.63-18.28-83.38-18.28Z"/>
  <path class="cls-4" d="M304.03,136.11l-53.52,87.85c27.92,17.07,46.6,47.85,46.6,82.9h102.89c0-72.2-38.46-135.58-95.97-170.75Z"/>
  <polygon class="cls-3" points="89.9 281.23 79.39 278.6 73.64 287.79 72.89 276.98 62.39 274.35 72.43 270.3 71.68 259.49 78.64 267.8 88.69 263.75 82.94 272.93 89.9 281.23"/>
  <polygon class="cls-3" points="77.94 208.11 72.33 199.48 62.39 202.15 68.86 194.14 63.25 185.51 72.86 189.2 79.34 181.19 78.81 191.47 88.42 195.16 78.48 197.83 77.94 208.11"/>
  <polygon class="cls-3" points="168.71 151.86 159.06 162.68 166.37 175.2 153.1 169.37 143.46 180.19 144.9 165.76 131.63 159.93 145.79 156.85 147.24 142.43 154.55 154.95 168.71 151.86"/>
  <polygon class="cls-3" points="257.85 140.03 252.24 141.85 252.24 147.75 248.78 142.98 243.17 144.8 246.63 140.03 243.17 135.26 248.78 137.08 252.24 132.31 252.24 138.21 257.85 140.03"/>
  <polygon class="cls-3" points="219.26 200.31 225.34 192 219.32 183.65 229.1 186.86 235.18 178.55 235.15 188.84 244.93 192.06 235.13 195.21 235.09 205.51 229.07 197.16 219.26 200.31"/>
  <polygon class="cls-3" points="176.83 136.11 171.22 137.94 171.22 143.84 167.75 139.06 162.14 140.89 165.61 136.11 162.14 131.34 167.75 133.16 171.22 128.39 171.22 134.29 176.83 136.11"/>
  <polygon class="cls-3" points="135.04 205.51 129.43 207.33 129.43 213.23 125.97 208.45 120.36 210.28 123.82 205.51 120.36 200.73 125.97 202.56 129.43 197.78 129.43 203.68 135.04 205.51"/>
  <polygon class="cls-3" points="74.27 229.21 68.66 231.03 68.66 236.93 65.19 232.16 59.58 233.98 63.05 229.21 59.58 224.44 65.19 226.26 68.66 221.49 68.66 227.39 74.27 229.21"/>
  <polygon class="cls-3" points="205.6 166.02 199.99 167.84 199.99 173.74 196.52 168.97 190.91 170.79 194.38 166.02 190.91 161.25 196.52 163.07 199.99 158.3 199.99 164.2 205.6 166.02"/>
  <polygon class="cls-3" points="38.6 276.58 32.99 278.4 32.99 284.3 29.52 279.53 23.91 281.35 27.38 276.58 23.91 271.81 29.52 273.63 32.99 268.86 32.99 274.76 38.6 276.58"/>
  <g>
    <path class="cls-1" d="M337.28,93.22c8.4-.03,16.8-.05,25.2-.08,1.63,0,3.47.08,4.56,1.3.94,1.06.98,2.61.97,4.02-.05,7.25-.1,14.5-.15,21.75"/>
    <g>
      <path class="cls-1" d="M368.72,221.7c.03,8.92.06,17.85.09,26.77,0,1.73-.08,3.69-1.38,4.84-1.12.99-2.76,1.04-4.25,1.03-7.66-.05-15.31-.11-22.97-.16"/>
      <path class="cls-1" d="M150.07,93.22c-8.9-.03-17.8-.06-26.69-.09-1.73,0-3.68.08-4.83,1.38-.99,1.12-1.03,2.77-1.02,4.26.05,7.68.11,15.36.16,23.04"/>
      <path class="cls-1" d="M119.58,221.7c-.03,8.92-.06,17.85-.09,26.77,0,1.73.08,3.69,1.38,4.84,1.12.99,2.76,1.04,4.25,1.03,7.66-.05,15.31-.11,22.97-.16"/>
    </g>
  </g>
</svg>