<?xml version="1.0" encoding="UTF-8"?>
<svg id="Layer_1" data-name="Layer 1" xmlns="http://www.w3.org/2000/svg" viewBox="0 0 400 400">
  <defs>
    <style>
      .cls-1 {
        fill: #5dc9e8;
      }

      .cls-2 {
        fill: none;
        stroke: #231f20;
        stroke-linecap: round;
        stroke-linejoin: round;
        stroke-width: 3.85px;
      }

      .cls-3 {
        fill: #fff;
      }

      .cls-4 {
        fill: #262261;
      }
    </style>
  </defs>
  <path class="cls-1" d="M384.04,195.35c0,98.45-94.98,178.27-212.14,178.27S-16.3,295.5,10.68,199.17C37.02,105.66,131.4,27.43,222.81,20.9c89.23-6.47,161.23,75.99,161.23,174.45Z"/>
  <path class="cls-4" d="M203.55,383.08c-.29-16.11-.58-32.21-.86-48.32-.13-7.69-1.43-13.85-5.54-20.46-1.44-2.31-3.02-4.53-4.4-6.88-.32-.55-1.74-3.11-1.37-2.44.57,1.02-.18-.5-.14-.7,0-.02.13,2.1-.06,1.99-.77-.49,2.25-4.88,2.94-5.97,1.58-2.5,3.23-4.96,4.49-7.65,3.4-7.25,4.08-14.83.98-22.33-1.26-3.05-2.81-5.85-4.55-8.65-.73-1.17-1.48-2.34-2.16-3.55-.33-.59-.68-1.18-.95-1.8-.81-1.83.23,1.21-.17-.7-.31-1.5-.05-.12-.04.13-.02-.42-.09-1.12.05-1.52.44-1.28-.05.5-.1.71.13-.54.22-1.08.38-1.61.34-1.11.68-2.2,1.05-3.3.44-1.32-.02-.1-.12.15.32-.78.7-1.54,1.06-2.3,5.18-10.8,12.54-20.57,16.21-32.09,4.14-12.97-.28-26.66-4.93-38.85-2.23-5.83-4.77-11.88-5.6-18.11-.2-1.51-.19-5.61-.29-8.06-.14-3.56-.34-7.11-.58-10.66-.87-12.72-1.97-25.11-9.16-36.08-7.63-11.64-19.07-19.78-33.05-21.37-12.83-1.45-26.17,2.65-35.86,11.15-8.31,7.29-13.35,18.25-15.37,28.97-1.17,6.25-2.45,13.67-1.18,20.02,1.12,5.56,3.44,11.17,6.02,16.18,19.82,38.51,69.38,29.51,99.66,10.2,7.68-4.9,13.99-10.96,20.76-16.94,2.32-2.05,2.58-2.25,5.09-3.91s4.93-2.98,7.53-4.25c.53-.26,1.07-.5,1.61-.74-.21.09-1.64.65-.3.15,1.06-.4,2.12-.79,3.2-1.15,2.28-.76,4.6-1.4,6.94-1.97,9.16-2.21,18.58-3.17,27.71-5.54,11.41-2.95,22.23-8.02,31.63-15.13,6.5-4.92,12.36-10.36,17.79-16.44,4.48-5.02,4.95-12.67,0-17.62-4.56-4.56-13.12-5.04-17.62,0-8.21,9.2-16.97,16.87-28.3,21.9,2.1-.93-1.61.62-1.64.63-1.13.42-2.27.81-3.42,1.18-1.86.6-3.73,1.12-5.62,1.6-4.35,1.1-8.76,1.9-13.18,2.68-8.76,1.54-17.44,3.1-25.71,6.48-10.64,4.34-19.48,10.72-27.73,18.71-1.18,1.14-2.38,2.25-3.63,3.31-.66.56-1.34,1.09-1.99,1.64-2.3,1.95,2.23-1.51-.31.22-3.13,2.13-6.21,4.28-9.5,6.17s-6.44,3.41-9.75,4.97c-3.05,1.44,2.41-.89-.74.32-.95.36-1.88.74-2.84,1.09-1.9.7-3.82,1.34-5.76,1.91s-3.87,1.08-5.83,1.51c-.94.21-6.83,1.17-3.5.75-3.83.48-7.61.5-11.47.4-.67-.02-3.8-.47-.39.06-.76-.12-1.51-.24-2.27-.39-1.65-.33-3.23-.82-4.85-1.26-.62-.17-3.42-1.39-.41-.03-.83-.37-1.65-.76-2.45-1.18-.87-.46-5.32-3.55-2.85-1.57-1.5-1.2-2.82-2.54-4.17-3.9-.35-.36-2.28-2.93-.58-.56-.61-.84-1.2-1.7-1.75-2.58-.97-1.56-1.79-3.18-2.62-4.82-1.62-3.2.6,2.18-.56-1.36-.52-1.59-1.01-3.2-1.54-4.79-.92-2.76-.5,1.02-.18-1.72.12-1.01.08-2.06.15-3.07s.16-2.04.27-3.05c-.29,2.63.23-1.28.27-1.49.44-2.34,1.01-4.65,1.74-6.91.07-.21,1.42-3.8.39-1.36.44-1.05.96-2.07,1.51-3.07s1.17-1.92,1.75-2.89c1.69-2.82-1.54,1.31.78-1.01.79-.79,1.58-1.58,2.36-2.38,2.24-2.27-1.75.8,1.06-.81.67-.38,1.3-.82,1.98-1.19.17-.1,3.62-1.54,1.39-.72,1.19-.44,2.41-.79,3.63-1.09,2.39-.58,1.79-.51,3.47-.57,8.99-.36,14.63,2.82,19.01,9.73.68,1.07,1.3,2.16,1.88,3.28.05.11,1.57,3.79.74,1.55.82,2.23,1.43,4.49,1.87,6.82-.12-.62-.24-2.65,0,.3.13,1.5.28,3.01.41,4.51.32,3.83.59,7.66.8,11.49.35,6.3.28,12.6,1.23,18.85s2.85,11.77,5.01,17.48,4.51,11.51,5.83,17.55c.5,2.28.73,3.86.72,6.23,0,.76-.64,3.52.05.75-.36,1.46-.73,2.88-1.22,4.3-1.2,3.55,1.1-2.01-.6,1.51-.37.77-.73,1.54-1.11,2.3-1.2,2.39-2.5,4.72-3.82,7.05-2.66,4.69-5.45,9.31-7.79,14.18-2.83,5.91-5.14,11.84-5.64,18.42-.57,7.58,2.75,14.27,6.62,20.52.49.79.99,1.56,1.46,2.36.27.45,2.31,4.46,1.64,3.06.87,1.85.19,1.06.42-.28-.41,2.4-.4,1.7-1.16,3.07-3.15,5.66-7.24,10.71-8.73,17.19-1.73,7.56.51,14.48,4.42,20.93,1.64,2.71,3.53,5.26,5.1,8.01.41.71.75,1.55,1.2,2.24-.46-1.13-.47-1.03-.03.3-.2-1.86-.24-1.62-.12.73-.44,17.01.6,34.21.91,51.23.29,16.02,25.21,16.07,24.92,0h0Z"/>
  <path class="cls-3" d="M192.88,383.08c-.17-9.32-.34-18.63-.5-27.95-.08-4.76-.17-9.52-.25-14.28-.04-2.32-.08-4.63-.12-6.95-.03-1.96.07-3.98-.28-5.92-.54-2.97-2.17-5.74-3.76-8.27-1.76-2.8-3.7-5.48-5.28-8.39-1.28-2.36-2.28-4.86-1.85-7.59.49-3.12,2.23-5.92,3.89-8.54,3.49-5.52,7.52-11.23,5.97-18.11-1.48-6.58-6.81-11.35-8.93-17.64-1.8-5.32.32-11.03,2.57-15.89,2.75-5.95,6.23-11.53,9.42-17.25,2.92-5.24,5.96-10.81,7.1-16.76,1.32-6.92-.5-14.39-2.63-20.96-2.29-7.07-5.44-13.85-7.46-21.01-1.01-3.59-1.71-7.25-1.84-10.98s-.23-7.64-.44-11.45-.5-7.9-.83-11.85c-.28-3.25-.49-6.53-1.18-9.72-1.27-5.88-3.92-11.56-7.54-16.36-3.8-5.05-8.68-9.28-14.53-11.76-6.39-2.71-13.38-2.89-20.14-1.64-5.88,1.09-11.43,3.62-15.95,7.55-4.27,3.72-7.38,8.57-9.54,13.76-2.27,5.46-3.45,11.31-3.99,17.19-.27,2.98-.66,6.17.1,9.08s1.71,5.73,2.88,8.49c3.82,9.04,10.23,16.9,19.05,21.42,8.14,4.18,17.48,5.39,26.53,4.68,9.64-.76,19.02-3.49,27.82-7.44,8.26-3.7,16.12-8.58,22.82-14.69,3.1-2.82,5.64-6.08,8.47-9.16s5.82-5.87,8.84-8.11c2.67-1.97,5.54-3.69,8.56-5.06.83-.37.92-.41,1.84-.77.7-.27,1.4-.52,2.11-.75,1.38-.46,2.79-.85,4.2-1.18s2.79-.6,4.2-.84c.68-.11,1.36-.22,2.04-.31.17-.02.34-.05.51-.07,0,0-.16.02.18-.02.37-.05.73-.09,1.1-.14,2.87-.35,5.75-.61,8.63-.93,6.4-.71,12.76-1.73,18.87-3.81,7.96-2.71,15.26-6.94,21.9-12.05,10.01-7.71,18.61-17.11,26.45-26.97,5.25-6.59,10.18-13.43,14.91-20.41,1.3-1.91-1.81-3.71-3.09-1.81-8.56,12.65-17.79,24.97-28.58,35.82-6.89,6.92-14.49,13.26-23.14,17.87-5.98,3.19-12.36,5.36-19.17,6.62-3.18.59-5.38.86-8.53,1.2-2.8.3-5.6.56-8.4.91-5.88.72-11.64,1.88-17.11,4.24-6.63,2.86-12.42,7.36-17.42,12.52-2.9,2.99-5.4,6.34-8.39,9.25s-6.15,5.42-9.55,7.73c-7.52,5.12-15.85,9.11-24.56,11.74s-17.84,3.95-26.86,2.85c-8.42-1.03-16.52-4.58-22.53-10.73-3.42-3.5-6.06-7.68-8.07-12.13-1.13-2.52-2.03-5.15-2.77-7.81-.2-.71-.48-1.47-.57-2.2s0-1.48.02-2.19c.04-1.46.12-2.91.25-4.36.92-10.75,4.4-22.11,12.95-29.25,4.4-3.68,9.94-5.76,15.58-6.53,6.41-.88,12.86-.23,18.59,2.91,10.13,5.54,16.99,16.94,18.16,28.31.78,7.67,1.3,15.37,1.6,23.07.14,3.7.15,7.37.73,11.04s1.55,7.02,2.7,10.42c2.38,7.01,5.47,13.77,7.36,20.94.96,3.63,1.59,7.34,1.69,11.09.07,2.58-.46,5.04-1.26,7.48-1.92,5.81-5.13,11.17-8.16,16.45s-6.46,11.08-8.74,17.07c-.97,2.55-1.69,5.18-1.96,7.89-.31,3.1.34,6.02,1.59,8.84,1.34,3.03,3.26,5.74,4.97,8.57,1.54,2.55,3.13,5.37,3.35,8.4.45,6.34-4.73,11.63-7.59,16.82-1.52,2.75-2.75,5.8-2.73,8.99.02,2.89,1.23,5.63,2.6,8.11,1.58,2.85,3.49,5.49,5.21,8.25,1.43,2.28,3.04,4.85,3.35,7.59.24,2.09.1,4.28.14,6.38.04,2.4.08,4.79.13,7.19.08,4.59.16,9.18.24,13.77.16,8.83.32,17.66.48,26.48.04,2.3,3.63,2.31,3.58,0h0Z"/>
  <path class="cls-2" d="M211.46,378.36c246.29-68,184.32-259.59,150.13-299.09"/>
</svg>