<?xml version="1.0" encoding="UTF-8"?>
<svg id="Layer_1" data-name="Layer 1" xmlns="http://www.w3.org/2000/svg" viewBox="0 0 400 400">
  <defs>
    <style>
      .cls-1 {
        fill: #efcce1;
      }

      .cls-2 {
        fill: #e3d5aa;
      }

      .cls-3 {
        fill: #716558;
      }

      .cls-4 {
        stroke: #716558;
        stroke-width: 4.65px;
      }

      .cls-4, .cls-5 {
        fill: none;
        stroke-linecap: round;
        stroke-linejoin: round;
      }

      .cls-5 {
        stroke: #9e1f63;
        stroke-width: 5.15px;
      }

      .cls-6 {
        fill: #9e1f63;
      }
    </style>
  </defs>
  <g>
    <path class="cls-1" d="M72.06,53.87c47.87-33.9,104.14-31,132.78,13.36,32.96,44.67,23.23,108.11-28.68,142.15-54.55,32.74-128.49,23.02-159.92-20.5-26.47-42.49,3.63-101.42,55.82-135Z"/>
    <polygon class="cls-6" points="94.98 150.32 87.26 138.44 73.58 142.11 82.49 131.1 74.77 119.22 88 124.29 96.91 113.28 96.17 127.42 109.4 132.5 95.72 136.17 94.98 150.32"/>
    <polygon class="cls-6" points="136.48 153.06 141.62 135.25 126.27 124.86 144.79 124.25 149.93 106.44 156.24 123.87 174.76 123.25 160.14 134.64 166.45 152.06 151.1 141.67 136.48 153.06"/>
    <path class="cls-6" d="M49.24,215.1c-12.77,12.24-17.2,37.09-9.89,55.41,8.23-1.36,16.59-1.38,24.82-.05-.86,31.57.41,63.24,3.77,94.53.36,3.4.86,7.05,2.76,9.43,2.2,2.75,5.58,2.91,8.63,2.92,27.14.06,54.27.13,81.41.19,2.6,0,5.53-.18,7.25-2.71,1.39-2.05,1.53-5.02,1.6-7.75.73-28.09,1.47-56.18,2.2-84.28,11.05-.42,22.1-.84,33.15-1.26-.73.03,1.88-40.56.58-42.65-4.27-6.88-19.59-5.32-26.54-5.77-13.8-.91-30.26,4.76-43.64,1.39-17.73-4.46-19.56-23.06-32.55-30.91-12.27-7.41-41.35-.18-53.54,11.51Z"/>
    <path class="cls-6" d="M164.95,172.08c-21.39,29.45-61.25,30.96-70.02,3.93,26.82-11.67,64.56,1.82,70.02-3.93Z"/>
    <path class="cls-5" d="M78.69,69.39c-5.89-12.75-13.52-24.7-22.61-35.4"/>
    <path class="cls-5" d="M88.7,62.91c-5.28-9.9-8.48-20.91-9.31-32.1-.16-2.17-.33-4.56-1.85-6.11"/>
    <path class="cls-5" d="M102.2,60.13C95.98,40.67,92.3,20.4,91.27,0"/>
  </g>
  <g>
    <path class="cls-2" d="M189.34,211.33c-9.75,41.71,19.68,74.43,65.43,73.08,45.55-1.37,80.84-37.04,80.13-79.68-.59-41.38-29.15-73.38-64.26-72.98-34.46.4-71.38,37.89-81.3,79.58Z"/>
    <polygon class="cls-3" points="230.13 232.25 223.91 220.53 212.87 224.16 220.06 213.28 213.83 201.56 224.5 206.57 231.68 195.7 231.09 209.66 241.76 214.66 230.73 218.29 230.13 232.25"/>
    <polygon class="cls-3" points="251.85 225.14 254.51 213.89 246.59 207.33 256.15 206.94 258.8 195.69 262.06 206.7 271.62 206.31 264.07 213.5 267.32 224.51 259.4 217.95 251.85 225.14"/>
    <path class="cls-3" d="M339.69,286.75c9.47,8.54,12.76,25.86,7.33,38.63-6.1-.95-12.3-.96-18.41-.03.63,22.01-.3,44.1-2.79,65.91-.27,2.37-.63,4.92-2.04,6.57-1.63,1.91-4.14,2.03-6.4,2.04-20.12.04-40.25.09-60.37.13-1.92,0-4.1-.12-5.37-1.89-1.03-1.43-1.13-3.5-1.19-5.4-.54-19.59-1.09-39.17-1.63-58.76-8.19-.29-16.39-.58-24.58-.88.54.02-1.39-28.28-.43-29.74,3.17-4.8,14.53-3.71,19.68-4.03,10.23-.63,22.44,3.32,32.36.97,13.15-3.11,14.5-16.08,24.14-21.55,9.1-5.16,30.66-.13,39.7,8.02Z"/>
    <path class="cls-3" d="M233.49,250.24c-.27,4.57,1.82,9.03,4.82,11.77,3,2.74,6.28,7.43,10.01,7.72,1.4.11,11.31.48,12.65-.05,4.77-1.88,8.27-20.3,12.38-23.83-1.39,2.72-14.36,9.94-16.98,9.68-4.06-.41-8.13-.82-12.19-1.23"/>
    <path class="cls-4" d="M303.8,206.79c6.56,1.22,13.34.73,19.74-1.44,3.42-1.16,7.05-3.13,8.52-7.08,1.48-3.95-.94-9.85-4.44-9.12-3.04.63-4.23,5.75-2.77,9.07,1.46,3.32,4.55,5.02,7.52,6.01,4.65,1.54,9.51,1.87,14.32,2.12,5.98.31,12.19.44,17.66-2.52,7.2-3.9,11.87-12.44,16.08-20.58"/>
    <path class="cls-4" d="M307.53,187.73c6.06-3.31,11.54-8.21,15.97-14.27,2.37-3.24,4.54-7.3,4.04-11.6-.5-4.3-5.14-7.66-7.76-4.73-2.28,2.54-1.02,7.64,1.68,9.46,2.7,1.82,6.04,1.22,8.98.08,4.59-1.78,8.83-4.71,12.99-7.69,5.16-3.7,10.45-7.7,13.74-13.81,4.34-8.05,4.49-18.31,4.44-27.95"/>
    <path class="cls-4" d="M299.72,166.28c4.96-5.41,8.96-12.11,11.68-19.53,1.45-3.96,2.52-8.64.97-12.55-1.55-3.91-6.8-5.39-8.57-1.63-1.54,3.26.92,7.65,3.94,8.39,3.02.73,6.06-1.09,8.58-3.26,3.94-3.4,7.24-7.77,10.47-12.15,4-5.44,8.05-11.21,9.67-18.26,2.14-9.28-.26-19.12-2.7-28.28"/>
  </g>
</svg>