<?xml version="1.0" encoding="UTF-8"?>
<svg id="Layer_1" data-name="Layer 1" xmlns="http://www.w3.org/2000/svg" viewBox="0 0 400 400">
  <defs>
    <style>
      .cls-1 {
        fill: #231f20;
      }

      .cls-2 {
        fill: #f9c512;
      }

      .cls-3 {
        fill: #ffdd15;
      }

      .cls-4 {
        fill: #f16522;
      }
    </style>
  </defs>
  <path class="cls-1" d="M153.84,104.38c2.44-6.52,4.93-13.03,7.73-19.39,1.6-3.63,3.28-7.28,5.4-10.65.35-.55.71-1.1,1.1-1.63.32-.43.38-.52.83-1.04.3-.35.62-.69.96-1,.15-.14.3-.26.45-.4.35-.31-.12.06.21-.17.29-.2.58-.4.89-.57.14-.08.28-.15.42-.22.1-.05.54-.24.31-.15-.25.1.16-.06.25-.09.15-.05.31-.11.46-.16.3-.1.6-.19.9-.28,1.71-.51,3.37-1.09,4.92-1.99,1.63-.95.15-3.49-1.48-2.53-.38.22-.77.43-1.17.62-.18.08-.35.16-.53.24.39-.17-.13.05-.28.11-.65.25-1.32.45-1.99.65-1.35.4-2.7.84-3.88,1.63-1.76,1.17-3.1,2.82-4.28,4.55-2.1,3.08-3.72,6.5-5.26,9.89-3.24,7.13-6.05,14.46-8.8,21.8-.66,1.77,2.17,2.53,2.83.78h0Z"/>
  <path class="cls-1" d="M184.33,65.16c4.37-.95,9.09.63,13.16,2.1,4.56,1.64,8.94,3.71,13.47,5.42,4.76,1.79,9.74,3.07,14.6,4.58,5.6,1.74,11.18,3.52,16.75,5.34,11.25,3.69,22.44,7.57,33.49,11.8,5.42,2.07,10.81,4.23,16.14,6.51,4.37,1.87,8.91,3.65,13.06,5.97,3.47,1.94,6.74,4.39,9.59,7.17,2.23,2.17,5.82,5.82,4.57,9.28-.64,1.78,2.19,2.54,2.83.78,1.24-3.45-.85-6.96-2.96-9.56-2.57-3.18-5.87-5.81-9.23-8.11s-7.01-3.91-10.7-5.57c-5.36-2.41-10.79-4.68-16.25-6.85-22.44-8.92-45.47-16.04-68.49-23.26-5.2-1.63-10.11-4.11-15.22-6.01s-10.36-3.55-15.59-2.42c-1.84.4-1.06,3.23.78,2.83h0Z"/>
  <path class="cls-1" d="M316.77,132.49c-6.24,24.19-13.95,47.98-23.65,71.01-7.44,17.67-16.09,34.76-24.64,51.91-8.65,17.36-16.92,34.9-23.79,53.06-4.09,10.83-7.72,21.84-10.93,32.97-1.59,5.53-3,11.1-4.57,16.63-1.34,4.72-2.83,9.45-5.02,13.86-2.05,4.11-4.75,8.1-8.59,10.73s-8.78,3.52-13.54,3.86c-10.32.74-21.75-.69-30.73-6.15-1.97-1.2-3.76-2.61-5.35-4.29-1.3-1.37-3.37.7-2.07,2.07,7.3,7.7,18.67,10.57,28.91,11.29,5.21.37,10.48.14,15.62-.8,4.83-.88,9.17-3.22,12.55-6.79,6.87-7.25,9.63-17.58,12.14-26.97,3.13-11.7,6.51-23.32,10.48-34.77,6.66-19.23,14.89-37.8,23.87-56.05,8.49-17.26,17.36-34.34,25.12-51.96,9.74-22.12,17.74-44.93,24.19-68.22.98-3.54,1.92-7.08,2.84-10.64.47-1.83-2.36-2.61-2.83-.78h0Z"/>
  <path class="cls-1" d="M155.63,368.59c-7.9-5.92-16.37-11.05-25.29-15.29-9.02-4.29-18.38-7.42-27.96-10.18s-18.76-5.62-25.68-12.58c-2.93-2.95-5.24-6.57-6.07-10.69-.89-4.4.37-8.87,2.18-12.87,1.91-4.21,4.37-8.15,6.4-12.3,2.36-4.83,4.56-9.74,6.81-14.61,4.27-9.23,8.51-18.48,12.66-27.77,7.43-16.62,14.58-33.36,21.15-50.34s12.24-33.31,17.48-50.27c.67-2.18,1.34-4.36,1.99-6.54.54-1.81-2.29-2.59-2.83-.78-5.21,17.37-11.02,34.56-17.45,51.52-6.5,17.15-13.62,34.05-21.05,50.81-4.09,9.23-8.28,18.43-12.51,27.6-2.28,4.95-4.58,9.88-6.88,14.82-2.1,4.51-4.49,8.82-6.78,13.24-2.08,4.01-3.91,8.22-4.32,12.76-.4,4.33.81,8.64,3.06,12.33,4.88,8,13.5,12.66,22.08,15.7,4.91,1.74,9.95,3.04,14.94,4.53s9.55,3.1,14.2,5.01c9.23,3.78,18.07,8.55,26.33,14.12,2.05,1.39,4.07,2.83,6.05,4.31,1.51,1.13,2.97-1.41,1.48-2.53h0Z"/>
  <path class="cls-1" d="M143.55,134.33c.42-2.46,1.51-4.91,2.31-7.26,1.15-3.4,2.34-6.79,3.45-10.21.34-1.03.75-2.09.94-3.16.32-1.85-2.51-2.64-2.83-.78-.42,2.46-1.51,4.91-2.31,7.26-1.15,3.4-2.34,6.79-3.45,10.21-.34,1.03-.75,2.09-.94,3.16-.32,1.85,2.51,2.64,2.83.78h0Z"/>
  <polygon class="cls-2" points="182.82 82.95 305.86 118.29 196.62 374.9 84.86 320.86 182.82 82.95"/>
  <path class="cls-2" d="M180.35,337.85c-2.44,6.33-9.66,9.53-16.14,7.14-6.47-2.39-9.74-9.45-7.3-15.79,2.44-6.33,9.66-9.53,16.14-7.14,6.47,2.39,9.74,9.45,7.3,15.79Z"/>
  <polygon class="cls-3" points="203.61 111.36 168.85 149.09 210.34 156.83 114.38 311.44 175.46 341.78 260.93 119.99 203.61 111.36"/>
  <polygon class="cls-4" points="188.43 203.21 169.27 252.93 216.96 242.13 188.43 203.21"/>
  <path class="cls-1" d="M194.56,62.54c4.37-.95,9.09.63,13.16,2.1,4.56,1.64,8.94,3.71,13.47,5.42,4.76,1.79,9.74,3.07,14.6,4.58,5.6,1.74,11.18,3.52,16.75,5.34,11.25,3.69,22.44,7.57,33.49,11.8,5.42,2.07,10.81,4.23,16.14,6.51,4.37,1.87,8.91,3.65,13.06,5.97,3.47,1.94,6.74,4.39,9.59,7.17,2.23,2.17,5.82,5.82,4.57,9.28-.64,1.78,2.19,2.54,2.83.78,1.24-3.45-.85-6.96-2.96-9.56-2.57-3.18-5.87-5.81-9.23-8.11s-7.01-3.91-10.7-5.57c-5.36-2.41-10.79-4.68-16.25-6.85-22.44-8.92-45.47-16.04-68.49-23.26-5.2-1.63-10.11-4.11-15.22-6.01s-10.36-3.55-15.59-2.42c-1.84.4-1.06,3.23.78,2.83h0Z"/>
  <path class="cls-1" d="M324.22,144.33c-6.24,24.19-13.95,47.98-23.65,71.01-7.44,17.67-16.09,34.76-24.64,51.91-8.65,17.36-16.92,34.9-23.79,53.06-4.09,10.83-7.72,21.84-10.93,32.97-1.59,5.53-3,11.1-4.57,16.63-1.34,4.72-2.83,9.45-5.02,13.86-2.05,4.11-4.75,8.1-8.59,10.73-4.01,2.75-8.78,3.52-13.54,3.86-10.32.74-21.75-.69-30.73-6.15-1.97-1.2-3.76-2.61-5.35-4.29-1.3-1.37-3.37.7-2.07,2.07,7.3,7.7,18.67,10.57,28.91,11.29,5.21.37,10.48.14,15.62-.8,4.83-.88,9.17-3.22,12.55-6.79,6.87-7.25,9.63-17.58,12.14-26.97,3.13-11.7,6.51-23.32,10.48-34.77,6.66-19.23,14.89-37.8,23.87-56.05,8.49-17.26,17.36-34.34,25.12-51.96,9.74-22.12,17.74-44.93,24.19-68.22.98-3.54,1.92-7.08,2.84-10.64.47-1.83-2.36-2.61-2.83-.78h0Z"/>
  <path class="cls-1" d="M124.57,40.28c1.99-10.99,7.42-21.78,15.01-29.97,3.43-3.7,7.16-6.69,12.12-7.95,5.29-1.34,10.94-1.05,16.28-.16,7.24,1.21,14.29,3.57,21.01,6.51,1.71.75,3.21-1.78,1.48-2.53-6.38-2.79-13-5.12-19.85-6.46-5.86-1.15-11.96-1.67-17.87-.58-5.29.97-9.58,3.51-13.41,7.22-4.3,4.17-7.87,9.13-10.74,14.38-3.21,5.85-5.67,12.2-6.86,18.77-.33,1.85,2.49,2.64,2.83.78h0Z"/>
  <path class="cls-1" d="M139.96,46c.56-3.09,1.25-6.25,2.84-8.99,1.4-2.42,3.45-4.34,5.57-6.14,2.54-2.16,5.16-4.37,8.27-5.67,2.84-1.18,5.91-1.5,8.96-1.22,4.7.42,9.3,2.16,13.59,4.03,1.71.75,3.21-1.78,1.48-2.53-7.26-3.17-15.7-6.14-23.61-3.55-3.5,1.15-6.35,3.25-9.18,5.54-2.55,2.07-5.07,4.24-6.93,6.97-2.18,3.19-3.14,7.02-3.82,10.77-.33,1.85,2.49,2.64,2.83.78h0Z"/>
</svg>