<?xml version="1.0" encoding="UTF-8"?>
<svg id="Layer_1" data-name="Layer 1" xmlns="http://www.w3.org/2000/svg" viewBox="0 0 269.73 149.91">
  <defs>
    <style>
      .cls-1 {
        letter-spacing: -.02em;
      }

      .cls-2 {
        fill: #f9c512;
      }

      .cls-3 {
        letter-spacing: 0em;
      }

      .cls-4 {
        font-family: BalooPaaji2-Regular, 'Baloo Paaji 2';
        font-size: 45.27px;
        font-variation-settings: 'wght' 400;
      }

      .cls-4, .cls-5 {
        fill: #fff;
      }

      .cls-5 {
        stroke: #221f1f;
        stroke-miterlimit: 10;
        stroke-width: 1.63px;
      }
    </style>
  </defs>
  <text class="cls-4" transform="translate(8.46 118.59)"><tspan x="0" y="0">dai</tspan><tspan class="cls-1" x="58.26" y="0">s</tspan><tspan class="cls-3" x="77.81" y="0">y</tspan><tspan x="99.58" y="0">chained</tspan></text>
  <g>
    <path class="cls-5" d="M116.33,58.23c-1.43-1.43-1.43-3.75,0-5.18,1.43-1.43,3.75-1.43,5.18,0,1.43,1.43,1.43,3.75,0,5.18s-3.75,1.43-5.18,0M112.72,61.85c3.43,3.43,8.98,3.43,12.41,0,3.43-3.43,3.43-8.98,0-12.41-3.43-3.43-8.98-3.43-12.41,0-3.43,3.43-3.43,8.98,0,12.41h0Z"/>
    <path class="cls-5" d="M154.47,39.4c0-2.02,1.64-3.67,3.67-3.67s3.67,1.64,3.67,3.67-1.64,3.67-3.67,3.67-3.67-1.64-3.67-3.67M149.36,39.4c0,4.85,3.93,8.78,8.78,8.78,4.85,0,8.78-3.93,8.78-8.78,0-4.85-3.93-8.78-8.78-8.78s-8.78,3.93-8.78,8.78h0Z"/>
    <path class="cls-5" d="M108.53,39.4c0-2.02,1.64-3.67,3.67-3.67s3.67,1.64,3.67,3.67-1.64,3.67-3.67,3.67-3.67-1.64-3.67-3.67M103.42,39.4c0,4.85,3.93,8.78,8.78,8.78s8.78-3.93,8.78-8.78-3.93-8.78-8.78-8.78c-4.85,0-8.78,3.93-8.78,8.78h0Z"/>
    <path class="cls-5" d="M135.17,20.09c-2.02,0-3.67-1.64-3.67-3.67,0-2.02,1.64-3.67,3.67-3.67s3.67,1.64,3.67,3.67-1.64,3.67-3.67,3.67M135.17,25.2c4.85,0,8.78-3.93,8.78-8.78s-3.93-8.78-8.78-8.78c-4.85,0-8.78,3.93-8.78,8.78s3.93,8.78,8.78,8.78h0Z"/>
    <path class="cls-5" d="M135.17,66.03c-2.02,0-3.67-1.64-3.67-3.67s1.64-3.67,3.67-3.67c2.02,0,3.67,1.64,3.67,3.67,0,2.02-1.64,3.67-3.67,3.67M135.17,71.15c4.85,0,8.78-3.93,8.78-8.78,0-4.85-3.93-8.78-8.78-8.78-4.85,0-8.78,3.93-8.78,8.78,0,4.85,3.93,8.78,8.78,8.78h0Z"/>
    <path class="cls-5" d="M148.82,25.74c-1.43-1.43-1.43-3.75,0-5.18s3.75-1.43,5.18,0c1.43,1.43,1.43,3.75,0,5.18-1.43,1.43-3.75,1.43-5.18,0M145.2,29.36c3.43,3.43,8.98,3.43,12.41,0s3.43-8.98,0-12.41c-3.43-3.43-8.98-3.43-12.41,0-3.43,3.43-3.43,8.98,0,12.41h0Z"/>
    <path class="cls-5" d="M121.51,25.74c-1.43,1.43-3.75,1.43-5.18,0s-1.43-3.75,0-5.18c1.43-1.43,3.75-1.43,5.18,0s1.43,3.75,0,5.18M125.13,29.36c3.43-3.43,3.43-8.98,0-12.41-3.43-3.43-8.98-3.43-12.41,0-3.43,3.43-3.43,8.98,0,12.41,3.43,3.43,8.98,3.43,12.41,0h0Z"/>
    <path class="cls-5" d="M154,58.23c-1.43,1.43-3.75,1.43-5.18,0-1.43-1.43-1.43-3.75,0-5.18,1.43-1.43,3.75-1.43,5.18,0,1.43,1.43,1.43,3.75,0,5.18M157.62,61.85c3.43-3.43,3.43-8.98,0-12.41-3.43-3.43-8.98-3.43-12.41,0-3.43,3.43-3.43,8.98,0,12.41,3.43,3.43,8.98,3.43,12.41,0h0Z"/>
    <path class="cls-5" d="M133.12,19.62l-10.59,4.39c-1.24.51-2.65-.07-3.17-1.31-.51-1.24.07-2.65,1.31-3.17l10.59-4.39c1.24-.51,2.65.07,3.17,1.31.51,1.24-.07,2.65-1.31,3.17Z"/>
    <path class="cls-5" d="M149.62,59.26l-10.59,4.39c-1.24.51-2.65-.07-3.17-1.31s.07-2.65,1.31-3.17l10.59-4.39c1.24-.51,2.65.07,3.17,1.31s-.07,2.65-1.31,3.17Z"/>
    <path class="cls-5" d="M119.73,26.85l-4.39,10.59c-.51,1.24-1.93,1.82-3.17,1.31s-1.82-1.93-1.31-3.17l4.39-10.59c.51-1.24,1.93-1.82,3.17-1.31s1.82,1.93,1.31,3.17Z"/>
    <path class="cls-5" d="M159.43,43.21l-4.39,10.59c-.51,1.24-1.93,1.82-3.17,1.31s-1.82-1.93-1.31-3.17l4.39-10.59c.51-1.24,1.93-1.82,3.17-1.31s1.82,1.93,1.31,3.17Z"/>
    <path class="cls-5" d="M115.37,41.42l4.39,10.59c.51,1.24-.07,2.65-1.31,3.17s-2.65-.07-3.17-1.31l-4.39-10.59c-.51-1.24.07-2.65,1.31-3.17,1.24-.51,2.65.07,3.17,1.31Z"/>
    <path class="cls-5" d="M122.6,54.81l10.59,4.39c1.24.51,1.82,1.93,1.31,3.17-.51,1.24-1.93,1.82-3.17,1.31l-10.59-4.39c-1.24-.51-1.82-1.93-1.31-3.17s1.93-1.82,3.17-1.31Z"/>
    <path class="cls-5" d="M138.96,15.11l10.59,4.39c1.24.51,1.82,1.93,1.31,3.17-.51,1.24-1.93,1.82-3.17,1.31l-10.59-4.39c-1.24-.51-1.82-1.93-1.31-3.17s1.93-1.82,3.17-1.31Z"/>
    <path class="cls-5" d="M155.02,24.92l4.39,10.59c.51,1.24-.07,2.65-1.31,3.17s-2.65-.07-3.17-1.31l-4.39-10.59c-.51-1.24.07-2.65,1.31-3.17s2.65.07,3.17,1.31Z"/>
    <circle class="cls-2" cx="135.17" cy="39.4" r="9.66"/>
  </g>
</svg>