<?xml version="1.0" encoding="UTF-8"?>
<svg id="Layer_1" data-name="Layer 1" xmlns="http://www.w3.org/2000/svg" xmlns:xlink="http://www.w3.org/1999/xlink" viewBox="0 0 443.63 276">
  <defs>
    <style>
      .cls-1 {
        fill: #9a9ca1;
      }

      .cls-2, .cls-3 {
        fill: #fff;
      }

      .cls-3 {
        font-size: 20.56px;
      }

      .cls-3, .cls-4 {
        font-family: Impact, Impact;
      }

      .cls-5 {
        fill: #00a69c;
      }

      .cls-6 {
        fill: #231f20;
      }

      .cls-7 {
        fill: #666;
      }

      .cls-8 {
        fill: #1b75bb;
      }

      .cls-9 {
        fill: #26a9e0;
      }

      .cls-10 {
        fill: #58595b;
      }

      .cls-11 {
        fill: #353535;
      }

      .cls-12 {
        fill: #bfe6f4;
      }

      .cls-13 {
        fill: url(#linear-gradient);
      }

      .cls-4 {
        fill: #be1e2d;
        font-size: 205.27px;
      }

      .cls-14 {
        fill: #262261;
      }
    </style>
    <linearGradient id="linear-gradient" x1="221.85" y1="457.83" x2="221.85" y2="227.45" gradientUnits="userSpaceOnUse">
      <stop offset=".8" stop-color="#fff"/>
      <stop offset=".83" stop-color="#fff" stop-opacity=".99"/>
      <stop offset=".85" stop-color="#fff" stop-opacity=".95"/>
      <stop offset=".88" stop-color="#fff" stop-opacity=".88"/>
      <stop offset=".9" stop-color="#fff" stop-opacity=".78"/>
      <stop offset=".93" stop-color="#fff" stop-opacity=".66"/>
      <stop offset=".95" stop-color="#fff" stop-opacity=".5"/>
      <stop offset=".97" stop-color="#fff" stop-opacity=".32"/>
      <stop offset=".99" stop-color="#fff" stop-opacity=".12"/>
      <stop offset="1" stop-color="#fff" stop-opacity="0"/>
    </linearGradient>
  </defs>
  <g>
    <rect class="cls-6" x="58.63" y="21.44" width="325.92" height="187.12"/>
    <text class="cls-4" transform="translate(222.24 197.21) scale(.54 1)"><tspan x="0" y="0">NO!</tspan></text>
    <g>
      <path class="cls-10" d="M84.12,68.08v40.64h-9.67v-40.64h9.67Z"/>
      <path class="cls-10" d="M88,68.08h16.38v8.13h-6.71v7.71h5.97v7.73h-5.97v17.07h-9.67v-40.64Z"/>
      <path class="cls-10" d="M124.67,68.08v40.64h-9.67v-40.64h9.67Z"/>
      <path class="cls-10" d="M148.03,68.08v8.13h-5.74v32.51h-9.67v-32.51h-5.72v-8.13h21.13Z"/>
      <path class="cls-10" d="M168.2,68.08v40.64h-9.67v-40.64h9.67Z"/>
      <path class="cls-10" d="M192.56,80.38h-8.98v-3.01c0-1.41-.12-2.3-.34-2.69-.23-.38-.61-.58-1.15-.58-.58,0-1.02.26-1.32.78-.3.52-.45,1.31-.45,2.36,0,1.36.17,2.38.5,3.06.32.69,1.23,1.52,2.73,2.48,4.3,2.79,7.01,5.08,8.13,6.87,1.12,1.79,1.68,4.68,1.68,8.66,0,2.9-.31,5.03-.93,6.4-.62,1.37-1.82,2.52-3.59,3.45s-3.84,1.39-6.2,1.39c-2.59,0-4.8-.54-6.63-1.61-1.83-1.07-3.03-2.44-3.59-4.09s-.85-4.01-.85-7.05v-2.66h8.98v4.94c0,1.52.13,2.5.38,2.94.25.44.7.65,1.34.65s1.12-.28,1.44-.83.47-1.37.47-2.46c0-2.39-.3-3.96-.9-4.69-.61-.74-2.12-1.97-4.52-3.69-2.4-1.74-4-3-4.78-3.79-.78-.79-1.43-1.87-1.94-3.26-.51-1.39-.77-3.16-.77-5.32,0-3.11.36-5.39,1.09-6.83.73-1.44,1.9-2.56,3.53-3.38,1.62-.81,3.58-1.22,5.88-1.22,2.51,0,4.65.44,6.42,1.33,1.77.89,2.94,2,3.51,3.35s.86,3.64.86,6.87v1.61Z"/>
      <path class="cls-10" d="M96.04,113.32v40.64h-8.47l-5.03-18.47v18.47h-8.08v-40.64h8.08l5.42,18.3v-18.3h8.08Z"/>
      <path class="cls-10" d="M122.01,137.12c0,4.08-.09,6.97-.26,8.67-.18,1.7-.73,3.25-1.65,4.66-.93,1.41-2.18,2.48-3.75,3.24-1.58.75-3.42,1.13-5.51,1.13s-3.78-.36-5.36-1.07-2.86-1.78-3.82-3.2c-.96-1.42-1.54-2.97-1.72-4.64-.18-1.67-.28-4.6-.28-8.79v-6.95c0-4.08.09-6.97.26-8.67.18-1.7.73-3.25,1.65-4.66.93-1.41,2.18-2.48,3.75-3.24,1.58-.75,3.41-1.13,5.51-1.13s3.78.36,5.36,1.07c1.58.71,2.86,1.78,3.82,3.2.96,1.42,1.54,2.97,1.72,4.64s.28,4.6.28,8.79v6.95ZM112.34,123.76c0-1.89-.1-3.1-.29-3.63-.19-.53-.59-.79-1.18-.79-.5,0-.89.21-1.16.64-.27.43-.4,1.69-.4,3.78v18.98c0,2.36.09,3.82.26,4.37.18.55.58.83,1.23.83s1.08-.32,1.26-.95c.18-.64.28-2.15.28-4.54v-18.68Z"/>
      <path class="cls-10" d="M145.09,113.32v8.13h-5.74v32.51h-9.67v-32.51h-5.72v-8.13h21.13Z"/>
      <path class="cls-2" d="M178.16,131.02h-9.67v-7.06c0-2.05-.1-3.34-.31-3.85-.21-.51-.66-.76-1.37-.76-.8,0-1.3.31-1.52.93-.21.62-.32,1.96-.32,4.02v18.88c0,1.97.11,3.26.32,3.87.21.6.7.9,1.45.9s1.19-.3,1.41-.91c.22-.6.33-2.02.33-4.25v-5.11h9.67v1.58c0,4.21-.27,7.19-.81,8.95-.54,1.76-1.75,3.3-3.61,4.63-1.86,1.32-4.15,1.99-6.88,1.99s-5.17-.56-7-1.68c-1.84-1.12-3.05-2.67-3.65-4.66-.6-1.98-.9-4.97-.9-8.95v-11.87c0-2.93.09-5.12.28-6.59.18-1.46.73-2.87,1.64-4.23s2.17-2.42,3.79-3.2c1.62-.78,3.47-1.17,5.57-1.17,2.85,0,5.2.6,7.05,1.81,1.85,1.2,3.07,2.7,3.65,4.5.58,1.8.87,4.59.87,8.38v3.86Z"/>
      <path class="cls-2" d="M191.3,113.32v32.51h5.88v8.13h-15.55v-40.64h9.67Z"/>
      <path class="cls-2" d="M199.52,113.32h16.12v8.13h-6.45v7.71h6.04v7.73h-6.04v8.94h7.1v8.13h-16.77v-40.64Z"/>
      <path class="cls-2" d="M235.78,113.32l5.53,40.64h-9.88l-.52-7.3h-3.46l-.58,7.3h-10l4.93-40.64h13.98ZM230.66,139.45c-.49-4.6-.98-10.29-1.47-17.07-.99,7.78-1.6,13.47-1.86,17.07h3.33Z"/>
      <path class="cls-2" d="M242.95,113.32h6.84c4.56,0,7.65.19,9.27.58,1.62.39,2.93,1.37,3.95,2.95,1.02,1.58,1.53,4.1,1.53,7.57,0,3.16-.36,5.29-1.08,6.38s-2.14,1.74-4.25,1.96c1.91.52,3.2,1.21,3.86,2.08.66.87,1.07,1.67,1.23,2.4.16.73.24,2.73.24,6.01v10.72h-8.98v-13.5c0-2.18-.16-3.52-.47-4.04-.31-.52-1.14-.78-2.47-.78v18.32h-9.67v-40.64ZM252.62,120.27v9.04c1.09,0,1.85-.16,2.29-.49.44-.33.66-1.38.66-3.18v-2.23c0-1.29-.21-2.13-.63-2.54-.42-.4-1.19-.6-2.31-.6Z"/>
      <path class="cls-10" d="M84.12,158.56v40.64h-9.67v-40.64h9.67Z"/>
      <path class="cls-10" d="M107.47,158.56v8.13h-5.74v32.51h-9.67v-32.51h-5.72v-8.13h21.13Z"/>
      <path class="cls-10" d="M114.8,158.56v3.64c0,1.89-.21,3.45-.62,4.68s-1.13,2.27-2.15,3.11c-1.02.85-2.17,1.42-3.46,1.72v-2.94c.92-.55,1.44-1.31,1.56-2.26h-1.56v-7.96h6.22Z"/>
      <path class="cls-10" d="M138.06,170.86h-8.98v-3.01c0-1.41-.12-2.3-.34-2.69-.23-.38-.61-.58-1.15-.58-.58,0-1.02.26-1.32.78-.3.52-.45,1.31-.45,2.36,0,1.36.17,2.38.5,3.06.32.69,1.23,1.52,2.73,2.48,4.3,2.79,7.01,5.08,8.13,6.87,1.12,1.79,1.68,4.68,1.68,8.66,0,2.9-.31,5.03-.93,6.4-.62,1.37-1.82,2.52-3.59,3.45s-3.84,1.39-6.2,1.39c-2.59,0-4.8-.54-6.63-1.61-1.83-1.07-3.03-2.44-3.59-4.09s-.85-4.01-.85-7.05v-2.66h8.98v4.94c0,1.52.13,2.5.38,2.94.25.44.7.65,1.34.65s1.12-.28,1.44-.83.47-1.37.47-2.46c0-2.39-.3-3.96-.9-4.69-.61-.74-2.12-1.97-4.52-3.69-2.4-1.74-4-3-4.78-3.79-.78-.79-1.43-1.87-1.94-3.26-.51-1.39-.77-3.16-.77-5.32,0-3.11.36-5.39,1.09-6.83.73-1.44,1.9-2.56,3.53-3.38,1.62-.81,3.58-1.22,5.88-1.22,2.51,0,4.65.44,6.42,1.33,1.77.89,2.94,2,3.51,3.35s.86,3.64.86,6.87v1.61Z"/>
      <path class="cls-10" d="M147.8,190.92v8.28h-7v-8.28h7Z"/>
      <path class="cls-10" d="M156.48,190.92v8.28h-7v-8.28h7Z"/>
      <path class="cls-10" d="M165.17,190.92v8.28h-7v-8.28h7Z"/>
    </g>
    <text class="cls-3" transform="translate(73.85 52.02)"><tspan x="0" y="0">CONSENT</tspan></text>
    <g>
      <rect class="cls-1" x="50.44" y="3.77" width="342.76" height="224.16" rx="9.6" ry="9.6"/>
      <rect x="52.28" y="4.98" width="339.06" height="221.47" rx="9.49" ry="9.49"/>
      <rect class="cls-14" x="60.63" y="19.64" width="322.36" height="192.17"/>
      <circle class="cls-11" cx="387.46" cy="115.71" r="1.97" transform="translate(211.17 479.63) rotate(-80.78)"/>
      <circle class="cls-7" cx="387.46" cy="115.71" r="1.39" transform="translate(211.17 479.63) rotate(-80.78)"/>
      <path d="M388.35,115.71c0,.5-.4.9-.9.9s-.9-.4-.9-.9.4-.9.9-.9.9.4.9.9Z"/>
    </g>
    <g>
      <path class="cls-2" d="M229.42,65.65h-12.24v-5.7h1.88v-12.41h-2.51v4.33h-4.09v-10.03h21.6v10.03h-4.09v-4.33h-2.49v12.41h1.93v5.7Z"/>
      <path class="cls-2" d="M248.03,65.65h-12v-5.22h1.99v-13.37h-1.99v-5.22h9.87v9.21c2.1-1.54,4.16-2.31,6.19-2.31,1.79,0,3.2.57,4.24,1.7,1.04,1.14,1.57,3.16,1.57,6.04v3.96h1.79v5.22h-9.67v-6.8c0-2.07-.11-3.36-.33-3.89-.23-.52-.71-.79-1.44-.79s-1.55.29-2.35.87v5.38h2.13v5.22Z"/>
      <path class="cls-2" d="M268.17,53.69l-6.17-.68c.68-1.63,1.78-2.78,3.29-3.44,1.49-.66,3.7-.99,6.61-.99,1.08,0,2.04.04,2.89.11s1.61.19,2.28.33c1.39.29,2.42.73,3.09,1.32.67.61,1.13,1.26,1.39,1.95.27.72.41,1.84.41,3.36v4.79h1.94v5.22h-9.82v-1.13c-1.36.96-3.18,1.44-5.45,1.44-2.14,0-3.75-.51-4.84-1.54-1.1-1.03-1.64-2.24-1.64-3.65,0-1.55.67-2.83,2.02-3.82,1.34-.99,3.08-1.49,5.23-1.49,1.96,0,3.53.28,4.68.84v-.5c0-1.03-.07-1.75-.2-2.16-.15-.43-.47-.8-.97-1.11-.52-.3-1.13-.45-1.82-.45-1.26,0-2.23.53-2.91,1.59ZM274.07,61.41v-3.03c-.7-.41-1.44-.62-2.23-.62-.69,0-1.24.21-1.64.62-.41.42-.61.96-.61,1.61s.21,1.22.63,1.64c.43.43.92.65,1.47.65.98,0,1.78-.29,2.38-.87Z"/>
      <path class="cls-2" d="M298.29,59.59v5.1c-.51.38-1.25.71-2.23.99-1.02.3-2.01.45-2.95.45-1.18,0-2.19-.21-3.04-.63-.87-.43-1.52-1.02-1.96-1.75-.24-.42-.42-.81-.53-1.16-.12-.35-.2-.74-.25-1.17-.07-.75-.11-2.21-.11-4.37v-2.79h-1.94v-5.22h1.94v-2.55l7.88-4.09v6.64h3.18v5.22h-3.18v3.22c0,1.05.09,1.75.27,2.11.17.35.52.53,1.07.53.51,0,1.13-.18,1.85-.53Z"/>
      <path class="cls-2" d="M301.93,54.99v-3.36c.83,0,1.47-.14,1.91-.41.44-.29.71-.61.82-.98.11-.38.18-1.1.19-2.17h-2.91v-6.23h7.82v5.33c0,1.91-.06,3.21-.19,3.92-.12.72-.49,1.42-1.1,2.09-.6.68-1.33,1.16-2.21,1.42-.88.26-2.32.39-4.32.39Z"/>
      <path class="cls-2" d="M318.31,65.86h-4.87v-5.27h4.56c1.17,1.35,2.45,2.02,3.84,2.02s2.1-.31,2.1-.94c0-.32-.15-.57-.46-.74-.31-.18-1.14-.45-2.49-.8-1.09-.32-2.29-.69-3.6-1.11-1.14-.35-2.04-.8-2.7-1.34-.68-.54-1.13-1.06-1.36-1.58-.25-.51-.37-1.19-.37-2.02,0-1.84.59-3.19,1.79-4.06,1.18-.86,2.68-1.28,4.5-1.28s3.46.39,4.73,1.16v-.86h4.81v4.83h-4.45c-1.11-1.15-2.42-1.73-3.95-1.73-1.2,0-1.8.35-1.8,1.04,0,.33.18.55.53.65.3.1,1.31.35,3.01.74,1.93.45,3.44.89,4.53,1.34,1.08.45,1.89,1.03,2.43,1.76.53.73.8,1.63.8,2.69,0,1.92-.65,3.33-1.96,4.25-1.29.9-2.89,1.35-4.79,1.35s-3.49-.38-4.81-1.13v1.03Z"/>
      <path class="cls-2" d="M346.75,53.69l-6.17-.68c.68-1.63,1.78-2.78,3.29-3.44,1.49-.66,3.7-.99,6.61-.99,1.08,0,2.04.04,2.89.11s1.61.19,2.28.33c1.39.29,2.42.73,3.09,1.32.67.61,1.13,1.26,1.39,1.95.27.72.41,1.84.41,3.36v4.79h1.94v5.22h-9.82v-1.13c-1.36.96-3.18,1.44-5.45,1.44-2.14,0-3.75-.51-4.84-1.54-1.1-1.03-1.64-2.24-1.64-3.65,0-1.55.67-2.83,2.02-3.82,1.34-.99,3.08-1.49,5.23-1.49,1.96,0,3.53.28,4.68.84v-.5c0-1.03-.07-1.75-.2-2.16-.15-.43-.47-.8-.97-1.11-.52-.3-1.13-.45-1.82-.45-1.26,0-2.23.53-2.91,1.59ZM352.65,61.41v-3.03c-.7-.41-1.44-.62-2.23-.62-.69,0-1.24.21-1.64.62-.41.42-.61.96-.61,1.61s.21,1.22.63,1.64c.43.43.92.65,1.47.65.98,0,1.78-.29,2.38-.87Z"/>
      <path class="cls-5" d="M101.39,143.72h-20.13v-13.59h4v-29.59h-4.11v-13.59h31.33l7.66,21.92,7.84-21.92h31.15v13.59h-4.07v29.59h4.18v13.59h-27.11v-13.59h4.15v-31.71l-15.69,45.31h-7.77l-15.54-44.9v31.31h4.11v13.59Z"/>
      <path class="cls-8" d="M183.82,143.72h-20.58v-13.59h3.96l9.75-29.59h-4.18v-13.59h37.35v13.59h-4.18l9.93,29.59h3.81v13.59h-27.11v-12.45h4.56l-1.98-7.14h-13.3l-2.28,7.14h4.26v12.45ZM188.71,101.35l-4.89,15.71h9.3l-4.41-15.71Z"/>
      <path class="cls-12" d="M244.32,143.72h-21.32v-13.59h4.56v-29.59h-4.56v-13.59h24.61l18.9,29.67v-16.08h-4.22v-13.59h20.95v13.59h-4.52v43.92h-17.1l-21.88-34.33v20h4.59v13.59Z"/>
      <path class="cls-9" d="M291.63,118.29v-8c1.99,0,3.51-.33,4.56-.98,1.05-.68,1.69-1.46,1.94-2.33.27-.9.42-2.63.45-5.18h-6.95v-14.86h18.64v12.69c0,4.54-.15,7.66-.45,9.35-.3,1.71-1.17,3.37-2.61,4.98-1.42,1.63-3.17,2.76-5.27,3.39-2.09.63-5.53.94-10.31.94Z"/>
      <path class="cls-8" d="M331.26,143.72h-11.69v-18.2h11.69c1.39,4.95,4.02,7.43,7.88,7.43,2.79,0,4.18-1.22,4.18-3.67,0-1.28-.49-2.34-1.46-3.18-1.05-.93-3.25-2.2-6.61-3.84-4.23-2.1-7.34-3.9-9.34-5.43-1.87-1.39-3.46-3.31-4.78-5.76-1.32-2.42-1.98-5.1-1.98-8.04,0-5.28,1.57-9.4,4.71-12.37,3.11-2.97,6.95-4.45,11.5-4.45s8.42,1.41,11.58,4.24v-3.51h11.76v16.16h-11.61c-1.42-4.46-3.93-6.69-7.54-6.69-2.54,0-3.81,1.18-3.81,3.55,0,1.14.36,2,1.08,2.57.7.6,2.95,1.92,6.76,3.96,5.1,2.78,8.51,4.8,10.23,6.08.87.63,1.76,1.5,2.67,2.63.91,1.13,1.66,2.29,2.26,3.49,1.37,2.67,2.05,5.55,2.05,8.65,0,4.76-1.62,8.79-4.85,12.08-3.24,3.35-7.32,5.02-12.25,5.02-4.58,0-8.73-1.48-12.44-4.45v3.71Z"/>
      <path class="cls-2" d="M280.48,193.99v-5.16c1.18,0,1.98-.12,2.38-.36.41-.24.67-.62.78-1.13.1-.5.16-2.04.16-4.61v-9.04h-1.71v-5.74h10.37v14.48c0,3.05-.14,5.2-.41,6.46-.28,1.28-.78,2.31-1.52,3.09-.73.8-1.65,1.37-2.76,1.7-1.1.33-2.57.49-4.41.49-1.14,0-2.1-.06-2.88-.17ZM283.25,162.78c0-.99.46-1.79,1.38-2.39s2.06-.9,3.41-.9,2.53.31,3.38.94c.84.64,1.26,1.42,1.26,2.34,0,.98-.44,1.76-1.33,2.35-.88.59-2,.89-3.34.89s-2.49-.27-3.4-.81c-.91-.53-1.36-1.33-1.36-2.41Z"/>
      <path class="cls-2" d="M296.49,176.98c0-2.69,1.03-4.95,3.1-6.8s4.86-2.77,8.37-2.77,6.42.89,8.63,2.67c2.22,1.78,3.33,4.11,3.33,6.97s-1.06,5.07-3.17,6.91c-2.11,1.85-4.91,2.77-8.37,2.77-3.75,0-6.66-.92-8.75-2.77-2.09-1.83-3.14-4.16-3.14-6.99ZM305.26,177.02c0,2.91.95,4.37,2.86,4.37,2.02,0,3.03-1.47,3.03-4.41,0-1.34-.25-2.39-.74-3.13-.51-.74-1.22-1.11-2.14-1.11s-1.64.36-2.19,1.09c-.55.73-.83,1.79-.83,3.18Z"/>
      <path class="cls-2" d="M333.23,186.21h-10.86v-5.74h2.19v-14.71h-2.22v-5.74h10.89v9.1c1.47-1,3.26-1.51,5.36-1.51,2.65,0,4.85.83,6.58,2.49,1.74,1.66,2.6,3.91,2.6,6.76,0,1.41-.21,2.68-.63,3.82-.42,1.14-1.05,2.17-1.89,3.09-1.67,1.86-3.76,2.79-6.27,2.79-2.23,0-4.15-.52-5.75-1.56v1.22ZM333.16,177c0,2.75,1,4.12,3,4.12,1.9,0,2.84-1.37,2.84-4.11,0-1.31-.26-2.3-.79-2.99-.53-.68-1.23-1.02-2.12-1.02-.94,0-1.67.37-2.17,1.11-.51.77-.76,1.73-.76,2.88Z"/>
    </g>
  </g>
  <g>
    <rect class="cls-6" x="58.63" y="248.27" width="325.92" height="187.12"/>
    <text class="cls-4" transform="translate(222.24 259.63) scale(.54 -1)"><tspan x="0" y="0">NO!</tspan></text>
    <g>
      <path class="cls-10" d="M74.45,298.28v-40.64h9.67v40.64h-9.67Z"/>
      <path class="cls-10" d="M86.34,298.28v-8.13h5.72v-32.51h9.67v32.51h5.74v8.13h-21.13Z"/>
      <path class="cls-10" d="M138.06,287.59c0,3.23-.29,5.52-.86,6.87s-1.75,2.46-3.51,3.35c-1.77.89-3.91,1.33-6.42,1.33-2.3,0-4.26-.41-5.88-1.22-1.62-.81-2.8-1.94-3.53-3.38-.73-1.44-1.09-3.71-1.09-6.83,0-2.16.26-3.93.77-5.32.51-1.39,1.16-2.48,1.94-3.26.78-.79,2.37-2.05,4.78-3.79,2.4-1.72,3.91-2.95,4.52-3.69.6-.74.9-2.3.9-4.69,0-1.09-.16-1.91-.47-2.46-.31-.55-.79-.83-1.44-.83s-1.09.22-1.34.65c-.25.44-.38,1.41-.38,2.94v4.95h-8.98v-2.66c0-3.05.28-5.4.85-7.05.57-1.66,1.76-3.02,3.59-4.09,1.83-1.07,4.04-1.61,6.63-1.61,2.36,0,4.42.46,6.2,1.39s2.97,2.08,3.59,3.45c.62,1.37.93,3.51.93,6.4,0,3.98-.56,6.87-1.68,8.66-1.12,1.79-3.83,4.08-8.13,6.88-1.5.97-2.41,1.8-2.73,2.48-.34.69-.5,1.71-.5,3.06,0,1.05.15,1.84.45,2.36.3.52.74.78,1.32.78.54,0,.92-.19,1.15-.58s.34-1.28.34-2.69v-3.01h8.98v1.61Z"/>
      <path class="cls-10" d="M140.8,265.92v-8.28h7v8.28h-7Z"/>
      <path class="cls-10" d="M149.48,265.92v-8.28h7v8.28h-7Z"/>
      <path class="cls-10" d="M158.16,265.92v-8.28h7v8.28h-7Z"/>
    </g>
    <g>
      <rect class="cls-1" x="50.44" y="228.91" width="342.76" height="224.16" rx="9.6" ry="9.6"/>
      <rect x="52.28" y="230.39" width="339.06" height="221.47" rx="9.49" ry="9.49"/>
      <rect class="cls-14" x="60.63" y="245.03" width="322.36" height="192.17"/>
    </g>
    <g>
      <path class="cls-2" d="M280.48,262.85v5.16c1.18,0,1.98.12,2.38.36.41.24.67.62.78,1.13.1.5.16,2.04.16,4.61v9.04h-1.71v5.74h10.37v-14.48c0-3.05-.14-5.2-.41-6.46-.28-1.28-.78-2.31-1.52-3.09-.73-.8-1.65-1.37-2.76-1.7-1.1-.33-2.57-.49-4.41-.49-1.14,0-2.1.06-2.88.17ZM283.25,294.06c0,.99.46,1.79,1.38,2.39s2.06.9,3.41.9,2.53-.31,3.38-.94c.84-.64,1.26-1.42,1.26-2.34,0-.98-.44-1.76-1.33-2.35-.88-.59-2-.89-3.34-.89s-2.49.27-3.4.81c-.91.53-1.36,1.33-1.36,2.41Z"/>
      <path class="cls-2" d="M296.49,279.86c0,2.69,1.03,4.95,3.1,6.8s4.86,2.77,8.37,2.77,6.42-.89,8.63-2.67c2.22-1.78,3.33-4.11,3.33-6.97s-1.06-5.07-3.17-6.91c-2.11-1.85-4.91-2.77-8.37-2.77-3.75,0-6.66.92-8.75,2.77-2.09,1.83-3.14,4.16-3.14,6.99ZM305.26,279.82c0-2.91.95-4.37,2.86-4.37,2.02,0,3.03,1.47,3.03,4.41,0,1.34-.25,2.39-.74,3.13-.51.74-1.22,1.11-2.14,1.11s-1.64-.36-2.19-1.09c-.55-.73-.83-1.79-.83-3.18Z"/>
      <path class="cls-2" d="M333.23,270.63h-10.86v5.74h2.19v14.71h-2.22v5.74h10.89v-9.1c1.47,1,3.26,1.51,5.36,1.51,2.65,0,4.85-.83,6.58-2.49,1.74-1.66,2.6-3.91,2.6-6.76,0-1.41-.21-2.68-.63-3.82-.42-1.14-1.05-2.17-1.89-3.09-1.67-1.86-3.76-2.79-6.27-2.79-2.23,0-4.15.52-5.75,1.56v-1.22ZM333.16,279.84c0-2.75,1-4.12,3-4.12,1.9,0,2.84,1.37,2.84,4.11,0,1.31-.26,2.3-.79,2.99-.53.68-1.23,1.02-2.12,1.02-.94,0-1.67-.37-2.17-1.11-.51-.77-.76-1.73-.76-2.88Z"/>
    </g>
  </g>
  <rect class="cls-13" x="49.31" y="227.45" width="345.07" height="230.38"/>
</svg>