<?xml version="1.0" encoding="UTF-8"?>
<svg id="Layer_1" data-name="Layer 1" xmlns="http://www.w3.org/2000/svg" xmlns:xlink="http://www.w3.org/1999/xlink" viewBox="0 0 443.63 276">
  <defs>
    <style>
      .cls-1 {
        fill: #9a9ca1;
      }

      .cls-2 {
        fill: #f0a3c1;
      }

      .cls-3 {
        letter-spacing: -.02em;
      }

      .cls-4, .cls-5, .cls-6 {
        fill: #fff;
      }

      .cls-7 {
        fill: #eb008b;
        font-size: 160.27px;
      }

      .cls-7, .cls-5, .cls-6, .cls-8 {
        font-family: Impact, Impact;
      }

      .cls-5 {
        font-size: 20.56px;
      }

      .cls-9 {
        fill: #231f20;
      }

      .cls-10 {
        fill: #666;
      }

      .cls-11 {
        letter-spacing: -.01em;
      }

      .cls-6 {
        font-size: 36.61px;
      }

      .cls-12 {
        fill: #58595b;
      }

      .cls-13 {
        fill: #353535;
      }

      .cls-14 {
        fill: url(#linear-gradient);
      }

      .cls-8 {
        fill: #be1e2d;
        font-size: 205.27px;
      }
    </style>
    <linearGradient id="linear-gradient" x1="224.13" y1="457.83" x2="224.13" y2="227.45" gradientUnits="userSpaceOnUse">
      <stop offset=".8" stop-color="#fff"/>
      <stop offset=".83" stop-color="#fff" stop-opacity=".99"/>
      <stop offset=".85" stop-color="#fff" stop-opacity=".95"/>
      <stop offset=".88" stop-color="#fff" stop-opacity=".88"/>
      <stop offset=".9" stop-color="#fff" stop-opacity=".78"/>
      <stop offset=".93" stop-color="#fff" stop-opacity=".66"/>
      <stop offset=".95" stop-color="#fff" stop-opacity=".5"/>
      <stop offset=".97" stop-color="#fff" stop-opacity=".32"/>
      <stop offset=".99" stop-color="#fff" stop-opacity=".12"/>
      <stop offset="1" stop-color="#fff" stop-opacity="0"/>
    </linearGradient>
  </defs>
  <g>
    <rect class="cls-9" x="60.81" y="21.44" width="325.92" height="187.12"/>
    <text class="cls-8" transform="translate(224.42 197.21) scale(.54 1)"><tspan x="0" y="0">NO!</tspan></text>
    <g>
      <path class="cls-12" d="M86.29,68.08v40.64h-9.67v-40.64h9.67Z"/>
      <path class="cls-12" d="M90.17,68.08h16.38v8.13h-6.71v7.71h5.97v7.73h-5.97v17.07h-9.67v-40.64Z"/>
      <path class="cls-12" d="M126.85,68.08v40.64h-9.67v-40.64h9.67Z"/>
      <path class="cls-12" d="M150.21,68.08v8.13h-5.74v32.51h-9.67v-32.51h-5.72v-8.13h21.13Z"/>
      <path class="cls-12" d="M170.37,68.08v40.64h-9.67v-40.64h9.67Z"/>
      <path class="cls-12" d="M194.74,80.38h-8.98v-3.01c0-1.41-.12-2.3-.34-2.69-.23-.38-.61-.58-1.15-.58-.58,0-1.02.26-1.32.78-.3.52-.45,1.31-.45,2.36,0,1.36.17,2.38.5,3.06.32.69,1.23,1.52,2.73,2.48,4.3,2.79,7.01,5.08,8.13,6.87,1.12,1.79,1.68,4.68,1.68,8.66,0,2.9-.31,5.03-.93,6.4-.62,1.37-1.82,2.52-3.59,3.45s-3.84,1.39-6.2,1.39c-2.59,0-4.8-.54-6.63-1.61-1.83-1.07-3.03-2.44-3.59-4.09s-.85-4.01-.85-7.05v-2.66h8.98v4.94c0,1.52.13,2.5.38,2.94.25.44.7.65,1.34.65s1.12-.28,1.44-.83.47-1.37.47-2.46c0-2.39-.3-3.96-.9-4.69-.61-.74-2.12-1.97-4.52-3.69-2.4-1.74-4-3-4.78-3.79-.78-.79-1.43-1.87-1.94-3.26-.51-1.39-.77-3.16-.77-5.32,0-3.11.36-5.39,1.09-6.83.73-1.44,1.9-2.56,3.53-3.38,1.62-.81,3.58-1.22,5.88-1.22,2.51,0,4.65.44,6.42,1.33,1.77.89,2.94,2,3.51,3.35s.86,3.64.86,6.87v1.61Z"/>
      <path class="cls-12" d="M98.21,113.32v40.64h-8.47l-5.03-18.47v18.47h-8.08v-40.64h8.08l5.42,18.3v-18.3h8.08Z"/>
      <path class="cls-12" d="M124.19,137.12c0,4.08-.09,6.97-.26,8.67-.18,1.7-.73,3.25-1.65,4.66-.93,1.41-2.18,2.48-3.75,3.24-1.58.75-3.42,1.13-5.51,1.13s-3.78-.36-5.36-1.07-2.86-1.78-3.82-3.2c-.96-1.42-1.54-2.97-1.72-4.64-.18-1.67-.28-4.6-.28-8.79v-6.95c0-4.08.09-6.97.26-8.67.18-1.7.73-3.25,1.65-4.66.93-1.41,2.18-2.48,3.75-3.24,1.58-.75,3.41-1.13,5.51-1.13s3.78.36,5.36,1.07c1.58.71,2.86,1.78,3.82,3.2.96,1.42,1.54,2.97,1.72,4.64s.28,4.6.28,8.79v6.95ZM114.52,123.76c0-1.89-.1-3.1-.29-3.63-.19-.53-.59-.79-1.18-.79-.5,0-.89.21-1.16.64-.27.43-.4,1.69-.4,3.78v18.98c0,2.36.09,3.82.26,4.37.18.55.58.83,1.23.83s1.08-.32,1.26-.95c.18-.64.28-2.15.28-4.54v-18.68Z"/>
      <path class="cls-12" d="M147.27,113.32v8.13h-5.74v32.51h-9.67v-32.51h-5.72v-8.13h21.13Z"/>
      <path class="cls-4" d="M180.34,131.02h-9.67v-7.06c0-2.05-.1-3.34-.31-3.85-.21-.51-.66-.76-1.37-.76-.8,0-1.3.31-1.52.93-.21.62-.32,1.96-.32,4.02v18.88c0,1.97.11,3.26.32,3.87.21.6.7.9,1.45.9s1.19-.3,1.41-.91c.22-.6.33-2.02.33-4.25v-5.11h9.67v1.58c0,4.21-.27,7.19-.81,8.95-.54,1.76-1.75,3.3-3.61,4.63-1.86,1.32-4.15,1.99-6.88,1.99s-5.17-.56-7-1.68c-1.84-1.12-3.05-2.67-3.65-4.66-.6-1.98-.9-4.97-.9-8.95v-11.87c0-2.93.09-5.12.28-6.59.18-1.46.73-2.87,1.64-4.23s2.17-2.42,3.79-3.2c1.62-.78,3.47-1.17,5.57-1.17,2.85,0,5.2.6,7.05,1.81,1.85,1.2,3.07,2.7,3.65,4.5.58,1.8.87,4.59.87,8.38v3.86Z"/>
      <path class="cls-4" d="M193.48,113.32v32.51h5.88v8.13h-15.55v-40.64h9.67Z"/>
      <path class="cls-4" d="M201.7,113.32h16.12v8.13h-6.45v7.71h6.04v7.73h-6.04v8.94h7.1v8.13h-16.77v-40.64Z"/>
      <path class="cls-4" d="M237.96,113.32l5.53,40.64h-9.88l-.52-7.3h-3.46l-.58,7.3h-10l4.93-40.64h13.98ZM232.83,139.45c-.49-4.6-.98-10.29-1.47-17.07-.99,7.78-1.6,13.47-1.86,17.07h3.33Z"/>
      <path class="cls-4" d="M245.13,113.32h6.84c4.56,0,7.65.19,9.27.58,1.62.39,2.93,1.37,3.95,2.95,1.02,1.58,1.53,4.1,1.53,7.57,0,3.16-.36,5.29-1.08,6.38s-2.14,1.74-4.25,1.96c1.91.52,3.2,1.21,3.86,2.08.66.87,1.07,1.67,1.23,2.4.16.73.24,2.73.24,6.01v10.72h-8.98v-13.5c0-2.18-.16-3.52-.47-4.04-.31-.52-1.14-.78-2.47-.78v18.32h-9.67v-40.64ZM254.8,120.27v9.04c1.09,0,1.85-.16,2.29-.49.44-.33.66-1.38.66-3.18v-2.23c0-1.29-.21-2.13-.63-2.54-.42-.4-1.19-.6-2.31-.6Z"/>
      <path class="cls-12" d="M86.29,158.56v40.64h-9.67v-40.64h9.67Z"/>
      <path class="cls-12" d="M109.65,158.56v8.13h-5.74v32.51h-9.67v-32.51h-5.72v-8.13h21.13Z"/>
      <path class="cls-12" d="M116.98,158.56v3.64c0,1.89-.21,3.45-.62,4.68s-1.13,2.27-2.15,3.11c-1.02.85-2.17,1.42-3.46,1.72v-2.94c.92-.55,1.44-1.31,1.56-2.26h-1.56v-7.96h6.22Z"/>
      <path class="cls-12" d="M140.24,170.86h-8.98v-3.01c0-1.41-.12-2.3-.34-2.69-.23-.38-.61-.58-1.15-.58-.58,0-1.02.26-1.32.78-.3.52-.45,1.31-.45,2.36,0,1.36.17,2.38.5,3.06.32.69,1.23,1.52,2.73,2.48,4.3,2.79,7.01,5.08,8.13,6.87,1.12,1.79,1.68,4.68,1.68,8.66,0,2.9-.31,5.03-.93,6.4-.62,1.37-1.82,2.52-3.59,3.45s-3.84,1.39-6.2,1.39c-2.59,0-4.8-.54-6.63-1.61-1.83-1.07-3.03-2.44-3.59-4.09s-.85-4.01-.85-7.05v-2.66h8.98v4.94c0,1.52.13,2.5.38,2.94.25.44.7.65,1.34.65s1.12-.28,1.44-.83.47-1.37.47-2.46c0-2.39-.3-3.96-.9-4.69-.61-.74-2.12-1.97-4.52-3.69-2.4-1.74-4-3-4.78-3.79-.78-.79-1.43-1.87-1.94-3.26-.51-1.39-.77-3.16-.77-5.32,0-3.11.36-5.39,1.09-6.83.73-1.44,1.9-2.56,3.53-3.38,1.62-.81,3.58-1.22,5.88-1.22,2.51,0,4.65.44,6.42,1.33,1.77.89,2.94,2,3.51,3.35s.86,3.64.86,6.87v1.61Z"/>
      <path class="cls-12" d="M149.98,190.92v8.28h-7v-8.28h7Z"/>
      <path class="cls-12" d="M158.66,190.92v8.28h-7v-8.28h7Z"/>
      <path class="cls-12" d="M167.34,190.92v8.28h-7v-8.28h7Z"/>
    </g>
    <text class="cls-5" transform="translate(76.03 52.02)"><tspan x="0" y="0">CONSENT</tspan></text>
    <g>
      <rect class="cls-1" x="52.61" y="3.77" width="342.76" height="224.16" rx="9.6" ry="9.6"/>
      <rect x="54.46" y="4.98" width="339.06" height="221.47" rx="9.49" ry="9.49"/>
      <rect class="cls-2" x="62.81" y="19.64" width="322.36" height="192.17"/>
      <circle class="cls-13" cx="389.63" cy="115.71" r="1.97" transform="translate(213 481.78) rotate(-80.78)"/>
      <circle class="cls-10" cx="389.63" cy="115.71" r="1.39" transform="translate(213 481.78) rotate(-80.78)"/>
      <path d="M390.53,115.71c0,.5-.4.9-.9.9s-.9-.4-.9-.9.4-.9.9-.9.9.4.9.9Z"/>
    </g>
    <g>
      <text class="cls-7" transform="translate(97.02 187.2) scale(.56 1)"><tspan x="0" y="0">SUC</tspan><tspan class="cls-3" x="259.27" y="0">K</tspan><tspan x="342.85" y="0">S!</tspan></text>
      <text class="cls-6" transform="translate(88.25 71.57) scale(1.09 1)"><tspan class="cls-11" x="0" y="0">V</tspan><tspan x="18.68" y="0">APING</tspan><tspan x="0" y="44.74"> </tspan></text>
    </g>
  </g>
  <g>
    <rect class="cls-9" x="60.81" y="248.27" width="325.92" height="187.12"/>
    <text class="cls-8" transform="translate(224.42 259.63) scale(.54 -1)"><tspan x="0" y="0">NO!</tspan></text>
    <g>
      <path class="cls-12" d="M76.62,298.28v-40.64h9.67v40.64h-9.67Z"/>
      <path class="cls-12" d="M88.52,298.28v-8.13h5.72v-32.51h9.67v32.51h5.74v8.13h-21.13Z"/>
      <path class="cls-12" d="M140.24,287.59c0,3.23-.29,5.52-.86,6.87s-1.75,2.46-3.51,3.35c-1.77.89-3.91,1.33-6.42,1.33-2.3,0-4.26-.41-5.88-1.22-1.62-.81-2.8-1.94-3.53-3.38-.73-1.44-1.09-3.71-1.09-6.83,0-2.16.26-3.93.77-5.32.51-1.39,1.16-2.48,1.94-3.26.78-.79,2.37-2.05,4.78-3.79,2.4-1.72,3.91-2.95,4.52-3.69.6-.74.9-2.3.9-4.69,0-1.09-.16-1.91-.47-2.46-.31-.55-.79-.83-1.44-.83s-1.09.22-1.34.65c-.25.44-.38,1.41-.38,2.94v4.95h-8.98v-2.66c0-3.05.28-5.4.85-7.05.57-1.66,1.76-3.02,3.59-4.09,1.83-1.07,4.04-1.61,6.63-1.61,2.36,0,4.42.46,6.2,1.39s2.97,2.08,3.59,3.45c.62,1.37.93,3.51.93,6.4,0,3.98-.56,6.87-1.68,8.66-1.12,1.79-3.83,4.08-8.13,6.88-1.5.97-2.41,1.8-2.73,2.48-.34.69-.5,1.71-.5,3.06,0,1.05.15,1.84.45,2.36.3.52.74.78,1.32.78.54,0,.92-.19,1.15-.58s.34-1.28.34-2.69v-3.01h8.98v1.61Z"/>
      <path class="cls-12" d="M142.98,265.92v-8.28h7v8.28h-7Z"/>
      <path class="cls-12" d="M151.66,265.92v-8.28h7v8.28h-7Z"/>
      <path class="cls-12" d="M160.34,265.92v-8.28h7v8.28h-7Z"/>
    </g>
    <g>
      <rect class="cls-1" x="52.61" y="228.91" width="342.76" height="224.16" rx="9.6" ry="9.6"/>
      <rect x="54.46" y="230.39" width="339.06" height="221.47" rx="9.49" ry="9.49"/>
      <rect class="cls-2" x="62.81" y="245.03" width="322.36" height="192.17"/>
    </g>
    <text class="cls-7" transform="translate(97.02 269.63) scale(.56 -1)"><tspan x="0" y="0">SUC</tspan><tspan class="cls-3" x="259.27" y="0">K</tspan><tspan x="342.85" y="0">S!</tspan></text>
  </g>
  <rect class="cls-14" x="51.35" y="227.45" width="345.55" height="230.38"/>
</svg>